<?xml version="1.0" encoding="UTF-8"?>
<svg id="BogotaMap" xmlns="http://www.w3.org/2000/svg" width="741.44" height="343.67" viewBox="0 0 741.44 343.67">
  <defs>
    <style>
      .cls-1, .cls-2, .cls-3, .cls-4 {
        stroke: #fff;
        stroke-linejoin: round;
        stroke-width: .8px;
      }

      .cls-1, .cls-5 {
        fill: #00b0f0;
      }

      .cls-6 {
        isolation: isolate;
      }

      .cls-2 {
        fill: #43ceff;
      }

      .cls-7 {
        stroke: #2e3643;
      }

      .cls-7, .cls-8, .cls-9 {
        fill: none;
      }

      .cls-3 {
        fill: #15c2ff;
      }

      .cls-4 {
        fill: #0094c8;
      }

      .cls-8, .cls-9 {
        stroke: #000;
      }

      .cls-9 {
        stroke-miterlimit: 2.4;
        stroke-width: .24px;
      }
    </style>
  </defs>
  <path id="antonioNarinoMap" class="cls-1" d="M347.3,210.97l2.9-3.7,3.9-7.9,1.9-14.7-.2-10.6,5.1-.4,13.6-15.9-20.8-13.1-3.3,4-.6,6.7-4.5,7,.4,8.7-5.2,4.7,1.8,4.5,5.2,7.9-.2,22.8h0Z"/>
  <path id="usaquenMap" class="cls-5" d="M247.8,38.37l.3-1.7-1.2-3.1-4.7,.8-8.9-4.6h-11.7l-4.3,7.3-.8,3.5-12.1,5.8-12-4.3-13.2-1.5-5.6,.6-7.4-2.7-15-.2-16.3-1.8-19.4,2.1-9.1,3.3-9.1,7.7-10.7,3.5-6-1.9-11.4-1.7-10.5-6.4-3.5-10.6-4.5-4.3-7.1,1.3-4.3,1.7-2.7,11-6.4,11.3-3.7,4.4-2.5,9.1-.6,5.7,192.7,32.8v-7.6l14.6-28.7,4.4-3.3-4.4-5.7,7.1-15.9,6-2.5-1.9-2.5,5.9-.9h0Z"/>
  <path id="fontibonMap" class="cls-3" d="M249.4,251.37l-.6-2.2-2.7-3.3-4.7,2.2,1.4,1.6v7.9l-4.7,7.1-2.5-3,1.9-4.1-.5-3-4.7,1.4,.3-2.5-3-4.9v-2.7l-3-1.6-5.8,5.5v2.7h7.1v2.2l3.3,2.7-2.5,1.9,3.8,4.9-3.3,2.2,1.1,2.5-3.6,1.6-1.9-1.9h-4.4l-4.1-6-2.5-1.1-.8,2.2-6,4.4-5.5,.3-1.1-3.6h-2.2l-2.5,5.5-3,2.2-1.1-2.5,.2-10.6-2.9-6.6-3.7-1.7-1.6-1.9,1.9-3.1-1.2-2.9-3.5,2.7-1-2.1-6.6-.3,32.1-43.2,4.1-8.5,5.8,1,2.9,8.1,5.6-6.6,39.6-24.3,11.4,10.5,11.6,11.9-6.3,9.6-6.6,2.5-3.9,3.3,1.4,2.5-17.5,11.8-3.9,.2v1.9l1.9,6,2.3,2.3-4.9,5.2v5.4l4.5,4.1-3.9,4.2h0Z"/>
  <path id="bosaMap" class="cls-2" d="M272.8,285.67l2.7,1.4,8.5-5.5,4.9-2.2,4.1-.3,4.4-2.2,9.1-.8,6,3.3,1.1,3.5-1.4,3.8,1.4,1.1,.8-2.2,4.4-.3-1.9-1.9,.3-3.3-.8-1.4,2.5-.8,3,2.2,.6-4.4,10.7-1.6,6.3,4.1-3.6-6h2.2l-.8-9.5-3.3,.8-3.3-8.7,2.5-4.4,3.3-9.5,1.8-1.6,7.3,15.8-.6,20.4-1.7,15-3,12.3,1.2,3.7-10.7,9.8-9.3,5.4-7.8,6.9,1.2,2.7-1.6,1.5-.4,1.9-3.1,3.7-2.5,.1-.2-2.3h-3.1l-.1,2.5-3.4,1.3-4.7-.3,1.1-3.2-2.2-1.4v-1.4l2.5-.8v-3.5h-2.2l-.8-2.5-1.9,3.8-3-1.4-1.9,1.6-1.6-3.8h-2.7l-5.2,7.9-1.9,1.4-3-4.4,2.2-1.4v-4.1l5.2-2.5,1.9-2.5-1.9-1.4,.6-3.5-3.3-3.3-4.4,3.3-2.2-2.2,1.9-3.8,2.2-.3-.8-4.9-3,2.5-5.5-3.8-.5-5.5-4.1-.3-1.4-3.3,3-3,1.4-5.5-1.6-2.7v-2.5l4.4,1.4,1.1,3,3.3,1.6,1.3-1.6h0Z"/>
  <path id="puenteArandaMap" class="cls-2" d="M346.6,221.07l.7-11.3,.4-21.6-5.2-7.9-2-4.6-1.7-3.9-29.1-26.1-6.3-.3-1.8,7.6-26.4,27.9,11.5,11.6,17.3,7.9,23.4,5.7,19.2,15h0Z"/>
  <path id="chapineroMap" class="cls-3" d="M318.3,18.67l-8.5-3.2h-5.8l-8.2-4.3-3.5,1.5,1.9,4.6,5.4,12.4-1.9,10.4-6.2,3.5-6.2,.4-5.8-2.3-1.9,4.3v10.4l1.9,6.6-2.7,5.4h-5.1l-14-7-12.8-5.4-.8-5.4,1.9-.8,1.6-11.4-5.7,.9,1.9,2.5-6,2.5-7.1,15.9,4.4,5.7-4.4,3.3-14.6,28.7-.1,7.4,40.5,7.6,2.7-2.2,10.4,5.8,30.7,4.1,3-4.8,1.6-6.2-1-7.5,8.7-11,8-3.5,.4-4.4,2.5-3.3-10.1-13.9,.6-2.1h1.7l4.9-7.7v-2.9l-6.6-9.9v-1.5l6-5.4v-1.9l-3.9-5.2,2.3-4.6-.1-6.1h0Z"/>
  <path id="subaMap" class="cls-3" d="M215.9,105.47L23.4,72.57l-.1,2.7-7.6,12.9-3.3,1.5-.4,3.3-4.9,2.5,2.1,2.3,3.7-1.5-2.1,2.7,.4,2.9,4.7,3.3-1.4,2.3,1.6,2.5-1.7,2.9-3.5-.2-3.7,1.4,2.1,3.3-1.4,1.4,4.9,2.9,3.9-.8,.4,3.7-3.5,2.5-2.1-1.7-2.1,2.5v3.1l-3.8,4.5-5.2,1,1.4,2.1,3.7,.4,4.3,3.9v2.7l5.1-1.4,1.9-3.1,5.8-3.9,4.3,.8,1.9,1.9,5.2-.2-.8,1.9-3.5,.8-2.9-1.5-1.7,1.5,1.2,3.3,3.7,1,2.9,1.9,2.5-1.4,1.2-5.2h1.6l1.7,2.5,.8-1,1-5.6h3.1l4.1,7.3-.2,1.9,3.9,2.9,6.6,.4,1.6,1.5,1.7-2.1,4.3,3.7,1.2,3.9-4.1,4.4-5.2-.8-1.6,4.1,4.1,5-1,1.5,4.3,3.1,6.8,3.7,1.2,3.5-.8,2.1,3.7,2.3,3.9-1.7,4.5,3.7,.6-1.9h2.9l1-.8,4.1,2.5,1.4-1.7h3.9l3.5,3.1,1.6-2.7,5.6,1.4,2.3,1.9v2.3l2.5,2.3h7.6l1.4,3.3-1,.8,1.4,2.1h5.4l.8-2.3,3.9,3.5,.6,4.1,4.1,1.2,1.9,3.7,2.7-1.5-.6-4.1,3-2.6-2.8-1.8v-3.9l4.5-5.6,.8-3.5,5.1-2.7,1.2-2.9,6.6-5.4v-5.6l7.2-5.6,6.4,.6v-5.4l1.6-1.9,9.9-3.3-.8-2.3-1.4-.8-.2-1.5h4.7l3.1-2.7,10.1,.4,5.8-10.6h3.7l3.7-2.7,6.9-.5-8.7-14.5,4.5-11.6-.4-3.6h0Z"/>
  <path id="barriosUnidosMap" class="cls-1" d="M269.7,116.47l-10.4-5.8-2.7,2.2-40.7-7.6,.1,3.6-4.5,11.6,8.5,14.1,7.5,9.9,17.3,12.8,19.2-12.8,5.7-28h0Z"/>
  <path id="santafeMap" class="cls-1" d="M393.8,65.37l-6,1.7-8.6,.4,.2,14.9-9.3,23.4-7.6,12.4h2.7l3.1,3.7,5.2-.2-.2,5.2,1.9,2.9,4.7-.4-1.9,3.5-12.8,6.2-.4-3.3-2.7,2.1-2.9-.4-5.4,7.2-3.4,3.8-21.6-15.7-11.9-5.8-.6-1.4-5.7-.6-10.2-4.4,3-4.8,1.6-6.2-1-7.5,8.7-11,8-3.5,.4-4.4,2.5-3.3-10.1-13.9,.6-2.1h1.7l4.9-7.7v-2.9l-6.6-9.9v-1.5l6-5.4v-1.9l-3.9-5.2,2.3-4.6-.3-5.9,12.1-.9,7.4,3.5v4l3.1,2.7h6.6l4.7,1.5,19,1.6,7,4.3,8.9,1.2,.8,8.5-.8,3.1,4.3,3.9,2.7,10.8-.2,2.3h0Z"/>
  <path id="tunjuelitoMap" class="cls-4" d="M347.3,211.07l2.7-3.8,7.8-.4,5.4,3.9,10.3-8.5h2.7l1.4,1.4,4.1,1.2,2.9-3.9,7.8,.2,6.4-5.2,9.3,1,4.7-2.3,4.7-.2,14-.5,3,3.5-7.3,2.8-9.1,1.6-1.7,5.7-4.9-3.6-4.9,1.9,3.3,5.5-12.9,1.4-7.1,3.8-6,7.7-6.3,3v4.9l-5.8,3.3-3.6-.3-1.1-1.1h-3l-.3,4.1-5.8,1.6-3.3,4.9-14-8,3.3-.9,2.5-2.4-1.6-7.8,1.9-2.1-.1-2.6,.6-9.8h0Z"/>
  <path id="engativaMap" class="cls-2" d="M219.7,134.67l7.7,9.7,17.1,12.6,18.6,13.2-39.2,24.1-5.6,6.6-2.9-8.1-5.8-1-4.1,8.5-32.1,43.2-4.9,6.1-4.5,1.5-3.1-3.1-.2-2.1,3.3-1.2,2.3-3.3-1.7-4.8-3.7-2.1-2.7-7.2-2.5-2.7-1.2-4.6,1.9-.6,2.1,4.1,2.9-.6-1.4-4.6-2.5-1.4,.4-2.1-3.3-3.7,3.1-1.4,2.5-4.3-1.2-4.8-3.7,3.7-4.9,.2-2.3,2.9-2.3-1.9-.2-1.5-1.5-1.1-2.8-1.8v-3.9l4.5-5.6,.8-3.5,5.1-2.7,1.2-2.9,6.6-5.4v-5.6l7.2-5.6,6.4,.6v-5.4l1.6-1.9,9.9-3.3-.8-2.3-1.4-.8-.2-1.5h4.7l3.1-2.7,10.1,.4,5.8-10.6h3.7l3.7-2.7,6.4-1h0Z"/>
  <path id="candelariaMap" class="cls-2" d="M353.3,137.47l-2.1-4.3,4.1-8.3-4.1,.2-4.1-6.2-5.2-1-3.9-10.4-4.3,6.2,3.9,12-1.6,5.8,10.7,7,6.6-1h0Z"/>
  <path id="ciudadBolivarMap" class="cls-1" d="M643.3,325.07l-.1-3.4,1.6-3-5.8-12.3,.3-3.8,5.5-10.1-3.6-6.3,3.6-3.3-2.5-3.8-2.7-.3-1.4-5.7,1.6-.8,5.2-12.3-4.7-2.5-4.1-8.7,2.2-8.2,2.2-1.4v-12.3h-3.3l-4.4-2.5-5.2,2.7-4.9-.8-5.2,3.3h-1.9l-5.2-3.6-2.7,3.3-4.7-3.6-3,3.3-1.6,.3-6-3-6.6,3.3h-3.6l-3-2.5-12.9-1.1-7.7,4.4-3,.3-3-3.6-15.4-7.7-5.8,1.6-12.1-9.3-4.4-2.5-.8-4.6-9.1-8.5-15.4,1.6-3.6-2.2-8.5,4.6-2.5,5.7-4.7-4.1-7.4,2.7-13.5-1.6-4.1,5.7-4.9-10.7-6-.8-7.1,2.7-9.1,1.6-1.7,5.7-4.9-3.6-4.9,1.9,3.3,5.5-12.9,1.4-7.1,3.8-6,7.7-6.3,3v4.9l-5.8,3.3-3.6-.3-1.1-1.1h-3l-.3,4.1-5.8,1.6-3.3,4.9-14.1-8-2.5,2.9,7.4,15.8-.6,20.5-1.2,11.1,6.8-8.3h6.8l8.7-4.3,5.4,2.3,8.7,3.8,1.9-7.7,1.6,3.1,8.6,3.5,2.3-3.5,17.5-2.7,8.6-3.5,7,10.4,3.5,1.2,3.1,5.8,1.2-3.5,3.5,.4,8.9-7.7,7.8,3.5h10.1l3.1-7.7,3.1,2.7,.4,6.2,8.2-.8,1.2-1.9,7.4,.8,9.7-1.9,8.6,5h10.1l11.7,8.1,16.3-3.9,7.4,2.3,6.6,5,23.7,10.4,23.3,11.2,10.5,3.9,5.1,3.9,8.9-1.9,12.1,4.5h0Z"/>
  <path id="kennedyMap" class="cls-1" d="M286.4,192.37l-6.3,9.6-6.6,2.5-3.9,3.3,1.4,2.5-17.6,11.8-3.9,.2v1.9l1.9,6,2.3,2.3-4.9,5.2v5.4l4.5,4.1-4.3,4.4,.4,1.9,3.6-1.1,1.6,1.6v4.6h2.7l1.1,2.2-1.6,2.2,1.4,4.9,3,.8-1.1,5.7,3.6,3.6,6.6,4.1,.5,3.6,1.6-.2,2.8,1.5,8.5-5.5,4.9-2.2,4.1-.3,4.4-2.2,9.1-.8,6,3.3,1.1,3.6-1.4,3.8,1.4,1.1,.8-2.2,4.4-.3-1.9-1.9,.3-3.3-.8-1.4,2.5-.8,3,2.2,.6-4.4,10.7-1.6,6.3,4.1-3.6-6h2.2l-.8-9.6-3.3,.8-3.3-8.7,2.5-4.4,3.3-9.6,1.9-1.6,2.1-2.8,3.4-.9,2.5-2.4-1.6-7.8,1.9-2.1-.2-2.3-19.5-15-23.4-5.7-16.9-7.7h0Z"/>
  <path id="teusaquilloMap" class="cls-3" d="M263.1,169.97l12,10.8,26.4-27.9,2-7.4,1.5-9.2,12.1-8.8-.7-1.8-5.6-.6-10.3-4.4-30.9-4.3-5.6,28-19.2,12.8,18.3,12.8Z"/>
  <path id="rafaelUribeMap" class="cls-2" d="M374.5,157.87l16.5,18.2,4.5-6.2h3.1l2.5-1.7h4.7l6.2,1.2,6-.2,2.7,1.4,3.3-.2v7.7l1.7,.6-2.7,2.9-.2,5.8-5.5,7-4.6,.2-4.7,2.3-9.3-1-6.4,5.2-7.8-.2-2.9,3.9-4.1-1.2-1.4-1.4h-2.7l-10.3,8.5-5.4-3.9-7.7,.4,4-7.9,1.9-14.7-.2-10.6,5.1-.4,13.7-15.7h0Z"/>
  <path id="sumapazMap" class="cls-2" d="M740.4,338.57l-1.7,.4-6.4-4.1-9.9,8.2,2.2-6.5-5.5-5.2-7.7-20.2,1.4-.5,3-11.8-.5-8.7-3-11.2v-6.8l-7.7-17.8,4.7-4.1-.8-3.3-9.3-19.7-8.8-5.7-2.7,3.6-5.5-.5-6-4.9-3.3-5.7-26.7-15.6-4.4-.5-4.4-5.5-.5-5.5-3.2-5h0l2.8-1,2.9-8.7-1.6-2.3,1.9-5.8,5.4-.8,5.1-5.2,.6-2.9h7.2l4.9,2.1,9.5,1.4,1.6,1.9,4.3,.2,1.7-1.5,7.8,1.4,12.2,8.1,14.6,4.4,7.8,8.3,7,2.1,11.8,9"/>
  <path id="sanCristobalMap" class="cls-2" d="M468.2,107.57l-4.5,5.5-1.6,8.9-4.9,4.6-8,1.2-2.1,2.1-6-6.6-10.3-.2-5.4,2.3-10.1-7.9-4.7,4.4,3.9,7.5,15,1.4,3.3,5.8,21.6,11.6v6.8l-17.5,3.3-17.7,9.5-1.1,1.5h-6.1l-6.2-1.2h-4.7l-2.5,1.7h-3.1l-4.5,6.2-16.6-18.2-20.8-13.2,5.5-7.2,2.9,.4,2.7-2.1,.4,3.3,12.8-6.2,1.9-3.5-4.7,.4-1.9-2.9,.2-5.2-5.2,.2-3.1-3.7h-2.7l7.6-12.4,9.3-23.4-.1-14.8,8.6-.4,6-1.8,.1,2,5.1,1.5,3.5-3.5,2.9,1.2,.8,4.6,4.7,1.2,3.9-2.7,3.1,7.3,5.1,.4,7,3.1,3.5,5.4h7s11.7,7.7,13.2,7.7c1.6,0,1.9,5.4,1.9,5.4l7.4,5.4v2.7l3.1,.8,2.1-.2h0Z"/>
  <path id="usmeMap" class="cls-3" d="M634.2,181.67l2.9,5.2,.5,5.5,4.4,5.5,4.4,.5,26.4,15.3,3.3,5.7,6,4.9,5.5,.5,2.7-3.6,8.8,5.7,9.3,19.7,.8,3.3-4.7,4.1,7.7,17.8v6.8l3,11.2,.5,8.7-3,11.8-1.4,.5,7.7,20.2,5.5,5.2-2.5,7.1-22.6-.3-13.1-9.1-7,.4-15.5-6.6h-12.8l-7.6-2.9-.3-3.3,1.6-3-5.8-12.3,.3-3.8,5.5-10.1-3.6-6.3,3.6-3.3-2.5-3.8-2.7-.3-1.4-5.7,1.6-.8,5.2-12.3-4.7-2.5-4.1-8.7,2.2-8.2,2.2-1.4v-12.3h-3.3l-4.4-2.5-5.2,2.7-4.9-.8-5.2,3.3h-1.9l-5.2-3.6-2.7,3.3-4.7-3.6-3,3.3-1.6,.3-6-3-6.6,3.3h-3.6l-3-2.5-12.9-1.1-7.7,4.4-3,.3-3-3.6-15.4-7.7-5.8,1.6-12.1-9.3-4.4-2.5-.8-4.6-9.1-8.5-15.4,1.6-3.6-2.2-8.5,4.6-2.5,5.7-4.7-4.1-7.4,2.7-13.5-1.6-4.1,5.7-4.9-10.7-5.9-.9-3-3.4-14.1,.5,5.5-7,.2-5.8,2.7-2.9-1.7-.6v-7.7l-3.3,.2-2.6-1.4,1.1-1.4,17.7-9.5,17.5-3.3v-6.8l-21.6-11.6-3.3-5.8-15-1.4-3.9-7.5,4.7-4.4,10.1,7.9,5.4-2.3,10.3,.2,6,6.6,2.1-2.1,8-1.2,4.9-4.6,1.6-8.9,4.1-5.1,5.6-1.7,7,5,6.2-.4,3.9,8.1-1.2,5.8-1.2,3.1,7,3.9,3.9-3.5,7.8-1.5,10.1,4.3,7.4-1.9,7.8,7,.8,7.7,5.4,14.7,.8,10.1,4.7,3.5,4.3-1.5,3.5,2.7-.8,4.6,1.2,3.5,10.5,3.5,22.9-1.9,6.6,2.7,14.8-1.9,3.9,2.3,17.5-1,5.9-2.9h0Z"/>
  <path id="martiresMap" class="cls-4" d="M340.5,175.57l5.2-4.7-.4-8.7,4.5-7,.6-6.7-21.6-15.8-11.9-5.7-12.1,9.2-1.6,9.1,6.2,.2,29.1,26.1,2,4h0Z"/>
  <g id="usaquenMapText" class="cls-6">
    <path d="M117.92,62.57h1.33v5.79c0,1.01-.11,1.81-.34,2.4s-.64,1.07-1.23,1.45c-.59,.37-1.38,.56-2.34,.56s-1.71-.16-2.3-.49-1.02-.79-1.28-1.4c-.26-.61-.38-1.45-.38-2.51v-5.79h1.33v5.78c0,.87,.08,1.51,.24,1.92,.16,.41,.44,.73,.83,.95s.88,.33,1.45,.33c.98,0,1.67-.22,2.08-.66s.62-1.29,.62-2.55v-5.78Z"/>
    <path d="M120.81,70.42l1.22-.19c.07,.49,.26,.86,.57,1.12s.75,.39,1.31,.39,.98-.12,1.26-.35c.27-.23,.41-.5,.41-.81,0-.28-.12-.5-.36-.66-.17-.11-.59-.25-1.26-.42-.9-.23-1.53-.42-1.88-.59-.35-.17-.61-.4-.79-.69-.18-.29-.27-.62-.27-.97,0-.32,.07-.62,.22-.9,.15-.28,.35-.5,.6-.69,.19-.14,.45-.26,.78-.36,.33-.1,.68-.15,1.06-.15,.57,0,1.07,.08,1.5,.25s.75,.39,.95,.67c.21,.28,.35,.66,.42,1.12l-1.2,.16c-.05-.37-.21-.67-.48-.88s-.63-.31-1.11-.31c-.56,0-.97,.09-1.21,.28s-.36,.41-.36,.66c0,.16,.05,.3,.15,.43,.1,.13,.26,.24,.47,.33,.12,.05,.49,.15,1.09,.31,.87,.23,1.48,.42,1.82,.57,.34,.15,.61,.36,.81,.65s.29,.63,.29,1.05-.12,.8-.36,1.16c-.24,.36-.58,.64-1.04,.84-.45,.2-.96,.3-1.53,.3-.94,0-1.66-.2-2.16-.59s-.81-.97-.95-1.74Z"/>
    <path d="M133.04,71.69c-.46,.39-.89,.66-1.32,.82s-.87,.24-1.36,.24c-.8,0-1.41-.2-1.84-.58-.43-.39-.64-.89-.64-1.49,0-.36,.08-.68,.24-.97,.16-.29,.37-.53,.64-.71s.56-.31,.89-.4c.24-.06,.61-.12,1.09-.18,.99-.12,1.73-.26,2.19-.42,0-.17,0-.28,0-.32,0-.5-.12-.85-.35-1.06-.31-.28-.78-.42-1.4-.42-.58,0-1.01,.1-1.28,.3-.28,.2-.48,.56-.61,1.08l-1.2-.16c.11-.51,.29-.93,.54-1.25,.25-.32,.61-.56,1.09-.73,.47-.17,1.02-.26,1.65-.26s1.12,.07,1.51,.22,.67,.33,.85,.55c.18,.22,.31,.5,.38,.84,.04,.21,.06,.59,.06,1.13v1.64c0,1.14,.03,1.87,.08,2.17,.05,.3,.16,.59,.31,.87h-1.29c-.13-.25-.21-.55-.25-.9Zm-.1-2.75c-.45,.18-1.12,.34-2.01,.46-.51,.07-.86,.16-1.07,.25s-.37,.22-.49,.4c-.11,.18-.17,.37-.17,.58,0,.33,.12,.6,.37,.82s.61,.33,1.09,.33,.9-.1,1.26-.31c.37-.21,.64-.49,.81-.85,.13-.28,.2-.69,.2-1.23v-.45Z"/>
    <path d="M140.71,75.37v-3.55c-.19,.27-.46,.49-.8,.67s-.71,.27-1.1,.27c-.86,0-1.6-.34-2.23-1.03s-.93-1.63-.93-2.83c0-.73,.13-1.38,.38-1.96s.62-1.02,1.1-1.32c.48-.3,1.01-.45,1.58-.45,.9,0,1.6,.38,2.12,1.13v-.97h1.11v10.04h-1.23Zm-3.79-6.43c0,.93,.2,1.63,.59,2.1,.39,.47,.86,.7,1.41,.7s.98-.22,1.35-.67c.38-.45,.57-1.12,.57-2.03,0-.97-.2-1.69-.6-2.18s-.87-.73-1.4-.73-.99,.23-1.36,.68c-.37,.45-.56,1.16-.56,2.12Z"/>
    <path d="M148.63,72.59v-1.07c-.56,.82-1.33,1.23-2.3,1.23-.43,0-.83-.08-1.2-.25s-.65-.37-.83-.62c-.18-.25-.31-.55-.38-.91-.05-.24-.08-.62-.08-1.15v-4.5h1.23v4.03c0,.64,.02,1.08,.08,1.3,.08,.32,.24,.58,.49,.76,.25,.18,.56,.28,.93,.28s.72-.09,1.04-.28c.32-.19,.55-.45,.69-.77,.13-.33,.2-.8,.2-1.42v-3.89h1.23v7.26h-1.1Z"/>
    <path d="M156.63,70.25l1.27,.16c-.2,.74-.57,1.32-1.11,1.73s-1.23,.62-2.08,.62c-1.06,0-1.9-.33-2.53-.98-.62-.65-.93-1.57-.93-2.75s.31-2.17,.94-2.84,1.44-1.01,2.45-1.01,1.76,.33,2.38,.99,.92,1.59,.92,2.79c0,.07,0,.18,0,.33h-5.41c.05,.8,.27,1.41,.68,1.83s.91,.64,1.52,.64c.45,0,.84-.12,1.16-.36s.57-.62,.76-1.13Zm-4.04-1.99h4.05c-.05-.61-.21-1.07-.46-1.37-.39-.47-.9-.71-1.52-.71-.56,0-1.04,.19-1.43,.57s-.6,.88-.64,1.52Z"/>
    <path d="M159.44,72.59v-7.26h1.11v1.03c.53-.8,1.3-1.2,2.31-1.2,.44,0,.84,.08,1.21,.24,.37,.16,.64,.36,.82,.62s.31,.56,.38,.91c.05,.23,.07,.63,.07,1.2v4.46h-1.23v-4.42c0-.5-.05-.88-.14-1.12-.1-.25-.27-.45-.51-.59-.24-.15-.53-.22-.86-.22-.52,0-.98,.17-1.36,.5s-.57,.96-.57,1.89v3.96h-1.23Z"/>
  </g>
  <g id="chapineroMapText" class="cls-6">
    <path d="M241.27,91.01l1.33,.33c-.28,1.09-.78,1.92-1.5,2.49-.72,.57-1.61,.86-2.65,.86s-1.96-.22-2.64-.66c-.68-.44-1.19-1.08-1.54-1.91s-.53-1.73-.53-2.69c0-1.04,.2-1.95,.6-2.73,.4-.78,.97-1.37,1.7-1.77,.74-.4,1.55-.6,2.43-.6,1,0,1.85,.25,2.53,.77s1.16,1.23,1.43,2.15l-1.31,.31c-.23-.73-.57-1.26-1.01-1.59s-1-.5-1.67-.5c-.77,0-1.41,.18-1.93,.55s-.88,.87-1.09,1.49c-.21,.62-.31,1.26-.31,1.92,0,.85,.12,1.6,.37,2.23,.25,.64,.63,1.11,1.16,1.43s1.09,.47,1.7,.47c.74,0,1.37-.21,1.89-.64s.86-1.06,1.05-1.91Z"/>
    <path d="M244.08,94.52v-10.02h1.23v3.6c.57-.67,1.3-1,2.17-1,.54,0,1,.11,1.4,.32,.4,.21,.68,.5,.85,.88s.26,.92,.26,1.63v4.6h-1.23v-4.6c0-.62-.13-1.06-.4-1.34-.27-.28-.64-.42-1.13-.42-.36,0-.71,.09-1.03,.28-.32,.19-.55,.45-.69,.77s-.21,.77-.21,1.34v3.97h-1.23Z"/>
    <path d="M256.6,93.63c-.46,.39-.89,.66-1.32,.82s-.87,.24-1.36,.24c-.8,0-1.41-.2-1.84-.58-.43-.39-.64-.89-.64-1.49,0-.36,.08-.68,.24-.97,.16-.29,.37-.53,.64-.71s.56-.31,.89-.4c.24-.06,.61-.12,1.09-.18,.99-.12,1.73-.26,2.19-.42,0-.17,0-.28,0-.32,0-.5-.12-.85-.35-1.06-.31-.28-.78-.42-1.4-.42-.58,0-1.01,.1-1.28,.3-.28,.2-.48,.56-.61,1.08l-1.2-.16c.11-.51,.29-.93,.54-1.25,.25-.32,.61-.56,1.09-.73,.47-.17,1.02-.26,1.65-.26s1.12,.07,1.51,.22,.67,.33,.85,.55c.18,.22,.31,.5,.38,.84,.04,.21,.06,.59,.06,1.13v1.64c0,1.14,.03,1.87,.08,2.17,.05,.3,.16,.59,.31,.87h-1.29c-.13-.25-.21-.55-.25-.9Zm-.1-2.75c-.45,.18-1.12,.34-2.01,.46-.51,.07-.86,.16-1.07,.25s-.37,.22-.49,.4c-.11,.18-.17,.37-.17,.58,0,.33,.12,.6,.37,.82s.61,.33,1.09,.33,.9-.1,1.26-.31c.37-.21,.64-.49,.81-.85,.13-.28,.2-.69,.2-1.23v-.45Z"/>
    <path d="M259.65,97.31v-10.04h1.12v.94c.26-.37,.56-.65,.9-.83,.33-.19,.74-.28,1.21-.28,.62,0,1.17,.16,1.64,.48s.83,.77,1.07,1.35c.24,.58,.36,1.22,.36,1.91,0,.74-.13,1.41-.4,2.01-.27,.59-.65,1.05-1.16,1.37-.51,.32-1.04,.47-1.6,.47-.41,0-.78-.09-1.1-.26s-.59-.39-.8-.66v3.53h-1.23Zm1.11-6.37c0,.93,.19,1.62,.57,2.07s.84,.67,1.37,.67,1.02-.23,1.4-.69c.39-.46,.58-1.18,.58-2.15s-.19-1.62-.57-2.08-.83-.69-1.36-.69-.99,.25-1.39,.74c-.4,.49-.6,1.2-.6,2.14Z"/>
    <path d="M267.44,85.92v-1.42h1.23v1.42h-1.23Zm0,8.61v-7.26h1.23v7.26h-1.23Z"/>
    <path d="M270.55,94.52v-7.26h1.11v1.03c.53-.8,1.3-1.2,2.31-1.2,.44,0,.84,.08,1.21,.24,.37,.16,.64,.36,.82,.62s.31,.56,.38,.91c.05,.23,.07,.63,.07,1.2v4.46h-1.23v-4.42c0-.5-.05-.88-.14-1.12-.1-.25-.27-.45-.51-.59-.24-.15-.53-.22-.86-.22-.52,0-.98,.17-1.36,.5s-.57,.96-.57,1.89v3.96h-1.23Z"/>
    <path d="M283.3,92.19l1.27,.16c-.2,.74-.57,1.32-1.11,1.73s-1.23,.62-2.08,.62c-1.06,0-1.9-.33-2.53-.98-.62-.65-.93-1.57-.93-2.75s.31-2.17,.94-2.84,1.44-1.01,2.45-1.01,1.76,.33,2.38,.99,.92,1.59,.92,2.79c0,.07,0,.18,0,.33h-5.41c.05,.8,.27,1.41,.68,1.83s.91,.64,1.52,.64c.45,0,.84-.12,1.16-.36s.57-.62,.76-1.13Zm-4.04-1.99h4.05c-.05-.61-.21-1.07-.46-1.37-.39-.47-.9-.71-1.52-.71-.56,0-1.04,.19-1.43,.57s-.6,.88-.64,1.52Z"/>
    <path d="M286.1,94.52v-7.26h1.11v1.1c.28-.51,.54-.85,.78-1.02s.5-.25,.79-.25c.41,0,.84,.13,1.26,.4l-.42,1.14c-.3-.18-.6-.27-.9-.27-.27,0-.51,.08-.72,.24-.21,.16-.37,.39-.46,.67-.14,.44-.21,.92-.21,1.44v3.8h-1.23Z"/>
    <path d="M290.32,90.89c0-1.34,.37-2.34,1.12-2.99,.62-.54,1.39-.81,2.28-.81,1,0,1.81,.33,2.45,.98,.63,.65,.95,1.56,.95,2.71,0,.93-.14,1.67-.42,2.21-.28,.54-.69,.95-1.22,1.25s-1.12,.44-1.75,.44c-1.02,0-1.84-.33-2.46-.98s-.94-1.59-.94-2.82Zm1.26,0c0,.93,.2,1.63,.61,2.09,.41,.46,.92,.69,1.53,.69s1.12-.23,1.52-.7,.61-1.17,.61-2.13c0-.9-.2-1.58-.61-2.04-.41-.46-.92-.69-1.52-.69s-1.13,.23-1.53,.69-.61,1.16-.61,2.08Z"/>
  </g>
  <g id="bosaMapText" class="cls-6">
    <path d="M289.61,310.23v-10.02h3.76c.77,0,1.38,.1,1.84,.3,.46,.2,.82,.51,1.09,.94,.26,.42,.39,.86,.39,1.32,0,.43-.12,.83-.35,1.21s-.58,.68-1.05,.92c.61,.18,1.07,.48,1.4,.91s.49,.93,.49,1.52c0,.47-.1,.91-.3,1.31-.2,.4-.44,.71-.73,.93s-.66,.38-1.1,.5c-.44,.11-.98,.17-1.62,.17h-3.82Zm1.33-5.81h2.17c.59,0,1.01-.04,1.26-.12,.34-.1,.59-.27,.76-.5s.26-.52,.26-.88-.08-.62-.24-.88c-.16-.25-.39-.43-.68-.52-.3-.09-.8-.14-1.52-.14h-2v3.03Zm0,4.63h2.5c.43,0,.73-.02,.9-.05,.31-.05,.56-.15,.77-.27s.37-.31,.51-.56c.13-.24,.2-.53,.2-.84,0-.37-.1-.7-.29-.97-.19-.28-.46-.47-.8-.58-.34-.11-.83-.17-1.47-.17h-2.32v3.45Z"/>
    <path d="M298.38,306.6c0-1.34,.37-2.34,1.12-2.99,.62-.54,1.39-.81,2.28-.81,1,0,1.81,.33,2.45,.98,.63,.65,.95,1.56,.95,2.71,0,.93-.14,1.67-.42,2.21-.28,.54-.69,.95-1.22,1.25s-1.12,.44-1.75,.44c-1.02,0-1.84-.33-2.46-.98s-.94-1.59-.94-2.82Zm1.26,0c0,.93,.2,1.63,.61,2.09,.41,.46,.92,.69,1.53,.69s1.12-.23,1.52-.7,.61-1.17,.61-2.13c0-.9-.2-1.58-.61-2.04-.41-.46-.92-.69-1.52-.69s-1.13,.23-1.53,.69-.61,1.16-.61,2.08Z"/>
    <path d="M306.14,308.07l1.22-.19c.07,.49,.26,.86,.57,1.12s.75,.39,1.31,.39,.98-.12,1.26-.35c.27-.23,.41-.5,.41-.81,0-.28-.12-.5-.36-.66-.17-.11-.59-.25-1.26-.42-.9-.23-1.53-.42-1.88-.59-.35-.17-.61-.4-.79-.69-.18-.29-.27-.62-.27-.97,0-.32,.07-.62,.22-.9,.15-.28,.35-.5,.6-.69,.19-.14,.45-.26,.78-.36,.33-.1,.68-.15,1.06-.15,.57,0,1.07,.08,1.5,.25s.75,.39,.95,.67c.21,.28,.35,.66,.42,1.12l-1.2,.16c-.05-.37-.21-.67-.48-.88s-.63-.31-1.11-.31c-.56,0-.97,.09-1.21,.28s-.36,.41-.36,.66c0,.16,.05,.3,.15,.43,.1,.13,.26,.24,.47,.33,.12,.05,.49,.15,1.09,.31,.87,.23,1.48,.42,1.82,.57,.34,.15,.61,.36,.81,.65s.29,.63,.29,1.05-.12,.8-.36,1.16c-.24,.36-.58,.64-1.04,.84-.45,.2-.96,.3-1.53,.3-.94,0-1.66-.2-2.16-.59s-.81-.97-.95-1.74Z"/>
    <path d="M318.37,309.34c-.46,.39-.89,.66-1.32,.82s-.87,.24-1.36,.24c-.8,0-1.41-.2-1.84-.58-.43-.39-.64-.89-.64-1.49,0-.36,.08-.68,.24-.97,.16-.29,.37-.53,.64-.71s.56-.31,.89-.4c.24-.06,.61-.12,1.09-.18,.99-.12,1.73-.26,2.19-.42,0-.17,0-.28,0-.32,0-.5-.12-.85-.35-1.06-.31-.28-.78-.42-1.4-.42-.58,0-1.01,.1-1.28,.3-.28,.2-.48,.56-.61,1.08l-1.2-.16c.11-.51,.29-.93,.54-1.25,.25-.32,.61-.56,1.09-.73,.47-.17,1.02-.26,1.65-.26s1.12,.07,1.51,.22,.67,.33,.85,.55c.18,.22,.31,.5,.38,.84,.04,.21,.06,.59,.06,1.13v1.64c0,1.14,.03,1.87,.08,2.17,.05,.3,.16,.59,.31,.87h-1.29c-.13-.25-.21-.55-.25-.9Zm-.1-2.75c-.45,.18-1.12,.34-2.01,.46-.51,.07-.86,.16-1.07,.25s-.37,.22-.49,.4c-.11,.18-.17,.37-.17,.58,0,.33,.12,.6,.37,.82s.61,.33,1.09,.33,.9-.1,1.26-.31c.37-.21,.64-.49,.81-.85,.13-.28,.2-.69,.2-1.23v-.45Z"/>
  </g>
  <g id="antonioNarinoMapText">
    <path id="path7756" class="cls-8" d="M356.6,165.67l125.9-77.1"/>
  </g>
  <g id="sanCristobalMapText" class="cls-6">
    <path d="M372.16,111.91l1.25-.11c.06,.5,.2,.91,.41,1.23,.22,.32,.55,.58,1.01,.78,.46,.2,.97,.3,1.54,.3,.51,0,.95-.08,1.34-.23,.39-.15,.68-.36,.86-.62,.19-.26,.28-.55,.28-.86s-.09-.59-.27-.82c-.18-.23-.48-.43-.9-.59-.27-.1-.86-.27-1.78-.49-.92-.22-1.57-.43-1.93-.62-.48-.25-.83-.56-1.07-.93-.23-.37-.35-.79-.35-1.25,0-.51,.14-.98,.43-1.42,.29-.44,.71-.77,1.26-1,.55-.23,1.16-.34,1.84-.34,.74,0,1.4,.12,1.96,.36,.57,.24,1,.59,1.31,1.06,.3,.46,.47,.99,.49,1.58l-1.27,.1c-.07-.63-.3-1.11-.69-1.44-.39-.32-.98-.49-1.75-.49s-1.39,.15-1.75,.44c-.37,.29-.55,.65-.55,1.06,0,.36,.13,.66,.39,.89,.25,.23,.92,.47,2,.71,1.08,.24,1.82,.46,2.22,.64,.58,.27,1.01,.61,1.29,1.02,.28,.41,.42,.89,.42,1.43s-.15,1.04-.46,1.51c-.31,.47-.74,.84-1.32,1.1-.57,.26-1.22,.39-1.93,.39-.91,0-1.67-.13-2.28-.4-.61-.26-1.09-.66-1.44-1.19-.35-.53-.53-1.13-.55-1.8Z"/>
    <path d="M386.53,114.23c-.46,.39-.89,.66-1.32,.82-.42,.16-.87,.24-1.36,.24-.8,0-1.41-.2-1.84-.58-.43-.39-.64-.89-.64-1.49,0-.36,.08-.68,.24-.97,.16-.29,.37-.53,.64-.71,.26-.18,.56-.31,.89-.4,.24-.06,.61-.12,1.09-.18,.99-.12,1.72-.26,2.19-.42,0-.17,0-.28,0-.32,0-.5-.12-.85-.35-1.06-.31-.28-.78-.42-1.4-.42-.58,0-1.01,.1-1.28,.3-.28,.2-.48,.56-.61,1.08l-1.2-.16c.11-.51,.29-.93,.54-1.25,.25-.32,.61-.56,1.09-.73,.47-.17,1.02-.26,1.65-.26s1.12,.07,1.51,.22c.39,.15,.67,.33,.85,.55,.18,.22,.31,.5,.38,.84,.04,.21,.06,.59,.06,1.13v1.64c0,1.14,.03,1.87,.08,2.17,.05,.3,.16,.59,.31,.87h-1.29c-.13-.25-.21-.55-.25-.9Zm-.1-2.75c-.45,.18-1.12,.34-2.01,.46-.51,.07-.86,.16-1.07,.25-.21,.09-.37,.22-.49,.4-.11,.18-.17,.37-.17,.58,0,.33,.12,.6,.37,.82,.25,.22,.61,.33,1.09,.33s.9-.1,1.26-.31c.37-.21,.64-.49,.81-.85,.13-.28,.2-.69,.2-1.23v-.45Z"/>
    <path d="M389.57,115.13v-7.26h1.11v1.03c.53-.8,1.3-1.2,2.31-1.2,.44,0,.84,.08,1.21,.24,.37,.16,.64,.36,.82,.62,.18,.25,.31,.56,.38,.91,.04,.23,.07,.63,.07,1.2v4.46h-1.23v-4.42c0-.5-.05-.88-.14-1.12-.1-.25-.27-.45-.51-.59-.24-.15-.53-.22-.86-.22-.52,0-.98,.17-1.36,.5-.38,.33-.57,.96-.57,1.89v3.96h-1.23Z"/>
    <path d="M408.56,111.62l1.33,.33c-.28,1.09-.78,1.92-1.5,2.49-.72,.57-1.61,.86-2.65,.86s-1.96-.22-2.64-.66c-.68-.44-1.19-1.08-1.54-1.91-.35-.83-.53-1.73-.53-2.69,0-1.04,.2-1.95,.6-2.73,.4-.78,.97-1.37,1.7-1.77,.74-.4,1.55-.6,2.43-.6,1,0,1.85,.25,2.53,.77s1.16,1.23,1.43,2.15l-1.31,.31c-.23-.73-.57-1.26-1.01-1.59-.44-.33-1-.5-1.67-.5-.77,0-1.41,.18-1.93,.55-.52,.37-.88,.87-1.09,1.49-.21,.62-.31,1.26-.31,1.92,0,.85,.12,1.6,.37,2.23,.25,.64,.63,1.11,1.16,1.43,.52,.31,1.09,.47,1.7,.47,.74,0,1.37-.21,1.89-.64,.51-.43,.86-1.06,1.05-1.91Z"/>
    <path d="M411.35,115.13v-7.26h1.11v1.1c.28-.51,.54-.85,.78-1.02s.5-.25,.79-.25c.41,0,.84,.13,1.26,.4l-.42,1.14c-.3-.18-.6-.27-.9-.27-.27,0-.51,.08-.72,.24-.21,.16-.37,.39-.46,.67-.14,.44-.21,.92-.21,1.44v3.8h-1.23Z"/>
    <path d="M416.03,106.52v-1.42h1.23v1.42h-1.23Zm0,8.61v-7.26h1.23v7.26h-1.23Z"/>
    <path d="M418.64,112.96l1.22-.19c.07,.49,.26,.86,.57,1.12,.31,.26,.75,.39,1.31,.39s.98-.12,1.26-.35c.27-.23,.41-.5,.41-.81,0-.28-.12-.5-.36-.66-.17-.11-.59-.25-1.26-.42-.9-.23-1.53-.42-1.88-.59-.35-.17-.61-.4-.79-.69-.18-.29-.27-.62-.27-.97,0-.32,.07-.62,.22-.9,.15-.28,.35-.5,.61-.69,.19-.14,.45-.26,.78-.36,.33-.1,.68-.15,1.06-.15,.57,0,1.07,.08,1.5,.25s.75,.39,.95,.67c.21,.28,.35,.66,.42,1.12l-1.2,.16c-.05-.37-.21-.67-.48-.88-.26-.21-.63-.31-1.11-.31-.57,0-.97,.09-1.21,.28-.24,.19-.36,.41-.36,.66,0,.16,.05,.3,.15,.43,.1,.13,.26,.24,.47,.33,.12,.05,.49,.15,1.09,.31,.87,.23,1.48,.42,1.82,.57,.34,.15,.61,.36,.81,.65,.2,.28,.29,.63,.29,1.05s-.12,.8-.36,1.16c-.24,.36-.58,.64-1.04,.84-.45,.2-.96,.3-1.53,.3-.94,0-1.66-.2-2.16-.59-.49-.39-.81-.97-.95-1.74Z"/>
    <path d="M428.82,114.03l.18,1.09c-.35,.07-.66,.11-.93,.11-.45,0-.79-.07-1.04-.21s-.42-.33-.52-.56c-.1-.23-.15-.71-.15-1.45v-4.18h-.9v-.96h.9v-1.8l1.22-.74v2.54h1.24v.96h-1.24v4.25c0,.35,.02,.58,.06,.68,.04,.1,.11,.18,.21,.24,.1,.06,.24,.09,.42,.09,.14,0,.32-.02,.54-.05Z"/>
    <path d="M429.56,111.5c0-1.34,.37-2.34,1.12-2.99,.62-.54,1.38-.81,2.28-.81,1,0,1.81,.33,2.45,.98,.63,.65,.95,1.56,.95,2.71,0,.93-.14,1.67-.42,2.21-.28,.54-.69,.95-1.22,1.25-.54,.3-1.12,.44-1.75,.44-1.02,0-1.84-.33-2.46-.98-.63-.65-.94-1.59-.94-2.82Zm1.26,0c0,.93,.2,1.63,.61,2.09,.41,.46,.92,.69,1.53,.69s1.12-.23,1.52-.7c.41-.46,.61-1.17,.61-2.13,0-.9-.2-1.58-.61-2.04-.41-.46-.92-.69-1.52-.69s-1.13,.23-1.53,.69c-.41,.46-.61,1.16-.61,2.08Zm1.46-4.53l.91-1.91h1.61l-1.5,1.91h-1.02Z"/>
    <path d="M438.94,115.13h-1.14v-10.02h1.23v3.58c.52-.65,1.18-.98,1.99-.98,.45,0,.87,.09,1.27,.27,.4,.18,.73,.43,.98,.76,.26,.33,.46,.72,.61,1.18,.15,.46,.22,.95,.22,1.48,0,1.24-.31,2.21-.92,2.88s-1.35,1.02-2.21,1.02-1.53-.36-2.02-1.07v.91Zm-.01-3.68c0,.87,.12,1.5,.36,1.89,.39,.63,.91,.95,1.57,.95,.54,0,1-.23,1.39-.7,.39-.47,.59-1.16,.59-2.09s-.19-1.65-.56-2.1-.83-.68-1.36-.68-1,.23-1.39,.7c-.39,.47-.59,1.14-.59,2.03Z"/>
    <path d="M450.33,114.23c-.46,.39-.89,.66-1.32,.82-.42,.16-.87,.24-1.36,.24-.8,0-1.41-.2-1.84-.58-.43-.39-.64-.89-.64-1.49,0-.36,.08-.68,.24-.97,.16-.29,.37-.53,.64-.71,.26-.18,.56-.31,.89-.4,.24-.06,.61-.12,1.09-.18,.99-.12,1.72-.26,2.19-.42,0-.17,0-.28,0-.32,0-.5-.12-.85-.35-1.06-.31-.28-.78-.42-1.4-.42-.58,0-1.01,.1-1.28,.3-.28,.2-.48,.56-.61,1.08l-1.2-.16c.11-.51,.29-.93,.54-1.25,.25-.32,.61-.56,1.09-.73,.47-.17,1.02-.26,1.65-.26s1.12,.07,1.51,.22c.39,.15,.67,.33,.85,.55,.18,.22,.31,.5,.38,.84,.04,.21,.06,.59,.06,1.13v1.64c0,1.14,.03,1.87,.08,2.17,.05,.3,.16,.59,.31,.87h-1.29c-.13-.25-.21-.55-.25-.9Zm-.1-2.75c-.45,.18-1.12,.34-2.01,.46-.51,.07-.86,.16-1.07,.25-.21,.09-.37,.22-.49,.4-.11,.18-.17,.37-.17,.58,0,.33,.12,.6,.37,.82,.25,.22,.61,.33,1.09,.33s.9-.1,1.26-.31c.37-.21,.64-.49,.81-.85,.13-.28,.2-.69,.2-1.23v-.45Z"/>
    <path d="M453.35,115.13v-10.02h1.23v10.02h-1.23Z"/>
  </g>
  <g id="santafeMapText" class="cls-6">
    <path d="M328.21,75.55l1.25-.11c.06,.5,.2,.91,.41,1.23,.22,.32,.55,.58,1.01,.78,.46,.2,.97,.3,1.54,.3,.51,0,.95-.08,1.34-.23s.68-.36,.86-.62c.19-.26,.28-.55,.28-.86s-.09-.59-.27-.82c-.18-.23-.48-.43-.9-.59-.27-.1-.86-.27-1.78-.49-.92-.22-1.57-.43-1.93-.62-.48-.25-.83-.56-1.07-.93-.23-.37-.35-.79-.35-1.25,0-.51,.14-.98,.43-1.42,.29-.44,.71-.77,1.26-1s1.16-.34,1.84-.34c.74,0,1.4,.12,1.97,.36,.57,.24,1,.59,1.31,1.06s.47,.99,.49,1.58l-1.27,.1c-.07-.63-.3-1.11-.69-1.44s-.98-.49-1.75-.49-1.39,.15-1.75,.44c-.37,.29-.55,.65-.55,1.06,0,.36,.13,.66,.39,.89,.26,.23,.92,.47,2,.71,1.08,.24,1.82,.46,2.22,.64,.58,.27,1.01,.61,1.29,1.02,.28,.41,.42,.89,.42,1.43s-.15,1.04-.46,1.51c-.31,.47-.74,.84-1.32,1.1-.57,.26-1.22,.39-1.93,.39-.91,0-1.67-.13-2.28-.4s-1.09-.66-1.44-1.19c-.35-.53-.53-1.13-.55-1.8Z"/>
    <path d="M342.58,77.88c-.46,.39-.89,.66-1.32,.82s-.87,.24-1.36,.24c-.8,0-1.41-.2-1.84-.58-.43-.39-.64-.89-.64-1.49,0-.36,.08-.68,.24-.97,.16-.29,.37-.53,.64-.71s.56-.31,.89-.4c.24-.06,.61-.12,1.09-.18,.99-.12,1.73-.26,2.19-.42,0-.17,0-.28,0-.32,0-.5-.12-.85-.35-1.06-.31-.28-.78-.42-1.4-.42-.58,0-1.01,.1-1.28,.3-.28,.2-.48,.56-.61,1.08l-1.2-.16c.11-.51,.29-.93,.54-1.25,.25-.32,.61-.56,1.09-.73,.47-.17,1.02-.26,1.65-.26s1.12,.07,1.51,.22,.67,.33,.85,.55c.18,.22,.31,.5,.38,.84,.04,.21,.06,.59,.06,1.13v1.64c0,1.14,.03,1.87,.08,2.17,.05,.3,.16,.59,.31,.87h-1.29c-.13-.25-.21-.55-.25-.9Zm-.1-2.75c-.45,.18-1.12,.34-2.01,.46-.51,.07-.86,.16-1.07,.25s-.37,.22-.49,.4c-.11,.18-.17,.37-.17,.58,0,.33,.12,.6,.37,.82s.61,.33,1.09,.33,.9-.1,1.26-.31c.37-.21,.64-.49,.81-.85,.13-.28,.2-.69,.2-1.23v-.45Z"/>
    <path d="M345.63,78.77v-7.26h1.11v1.03c.53-.8,1.3-1.2,2.31-1.2,.44,0,.84,.08,1.21,.24,.37,.16,.64,.36,.82,.62s.31,.56,.38,.91c.05,.23,.07,.63,.07,1.2v4.46h-1.23v-4.42c0-.5-.05-.88-.14-1.12-.1-.25-.27-.45-.51-.59-.24-.15-.53-.22-.86-.22-.52,0-.98,.17-1.36,.5s-.57,.96-.57,1.89v3.96h-1.23Z"/>
    <path d="M356.1,77.67l.18,1.09c-.35,.07-.66,.11-.93,.11-.45,0-.79-.07-1.04-.21s-.42-.33-.52-.56c-.1-.23-.15-.71-.15-1.45v-4.18h-.9v-.96h.9v-1.8l1.22-.74v2.54h1.24v.96h-1.24v4.25c0,.35,.02,.58,.06,.68s.11,.18,.21,.24,.24,.09,.42,.09c.14,0,.32-.02,.54-.05Z"/>
    <path d="M362.04,77.88c-.46,.39-.89,.66-1.32,.82s-.87,.24-1.36,.24c-.8,0-1.41-.2-1.84-.58-.43-.39-.64-.89-.64-1.49,0-.36,.08-.68,.24-.97,.16-.29,.37-.53,.64-.71s.56-.31,.89-.4c.24-.06,.61-.12,1.09-.18,.99-.12,1.73-.26,2.19-.42,0-.17,0-.28,0-.32,0-.5-.12-.85-.35-1.06-.31-.28-.78-.42-1.4-.42-.58,0-1.01,.1-1.28,.3-.28,.2-.48,.56-.61,1.08l-1.2-.16c.11-.51,.29-.93,.54-1.25,.25-.32,.61-.56,1.09-.73,.47-.17,1.02-.26,1.65-.26s1.12,.07,1.51,.22,.67,.33,.85,.55c.18,.22,.31,.5,.38,.84,.04,.21,.06,.59,.06,1.13v1.64c0,1.14,.03,1.87,.08,2.17,.05,.3,.16,.59,.31,.87h-1.29c-.13-.25-.21-.55-.25-.9Zm-.1-2.75c-.45,.18-1.12,.34-2.01,.46-.51,.07-.86,.16-1.07,.25s-.37,.22-.49,.4c-.11,.18-.17,.37-.17,.58,0,.33,.12,.6,.37,.82s.61,.33,1.09,.33,.9-.1,1.26-.31c.37-.21,.64-.49,.81-.85,.13-.28,.2-.69,.2-1.23v-.45Z"/>
    <path d="M365.39,78.77v-6.3h-1.09v-.96h1.09v-.77c0-.49,.04-.85,.13-1.09,.12-.32,.33-.58,.63-.78,.3-.2,.72-.3,1.25-.3,.35,0,.73,.04,1.15,.12l-.18,1.07c-.26-.05-.5-.07-.72-.07-.37,0-.64,.08-.79,.24s-.23,.46-.23,.9v.67h1.42v.96h-1.42v6.3h-1.22Z"/>
    <path d="M373.95,76.43l1.27,.16c-.2,.74-.57,1.32-1.11,1.73-.54,.41-1.24,.62-2.08,.62-1.06,0-1.9-.33-2.53-.98-.62-.65-.93-1.57-.93-2.75s.31-2.17,.94-2.84,1.44-1.01,2.45-1.01,1.76,.33,2.38,.99,.92,1.59,.92,2.79c0,.07,0,.18,0,.33h-5.41c.05,.8,.27,1.41,.68,1.83,.41,.42,.91,.64,1.52,.64,.45,0,.84-.12,1.16-.36,.32-.24,.57-.62,.76-1.13Zm-4.04-1.99h4.05c-.05-.61-.21-1.07-.46-1.37-.39-.47-.9-.71-1.52-.71-.57,0-1.04,.19-1.43,.57-.39,.38-.6,.88-.64,1.52Zm1.33-3.83l.91-1.91h1.61l-1.5,1.91h-1.02Z"/>
  </g>
  <g id="usmeMapText" class="cls-6">
    <path d="M483.45,160.81h1.33v5.79c0,1.01-.11,1.81-.34,2.4-.23,.59-.64,1.07-1.23,1.45-.59,.37-1.38,.56-2.34,.56s-1.71-.16-2.3-.49c-.6-.32-1.02-.79-1.28-1.4-.25-.61-.38-1.45-.38-2.51v-5.79h1.33v5.78c0,.87,.08,1.51,.24,1.92,.16,.41,.44,.73,.83,.95,.39,.22,.88,.33,1.45,.33,.98,0,1.67-.22,2.08-.66,.42-.44,.62-1.29,.62-2.55v-5.78Z"/>
    <path d="M486.33,168.67l1.22-.19c.07,.49,.26,.86,.57,1.12,.31,.26,.75,.39,1.31,.39s.98-.12,1.26-.35c.27-.23,.41-.5,.41-.81,0-.28-.12-.5-.36-.66-.17-.11-.59-.25-1.26-.42-.9-.23-1.53-.42-1.88-.59-.35-.17-.61-.4-.79-.69-.18-.29-.27-.62-.27-.97,0-.32,.07-.62,.22-.9,.15-.28,.35-.5,.6-.69,.19-.14,.45-.26,.78-.36,.33-.1,.68-.15,1.06-.15,.57,0,1.07,.08,1.5,.25s.75,.39,.95,.67c.21,.28,.35,.66,.42,1.12l-1.2,.16c-.05-.37-.21-.67-.47-.88-.26-.21-.63-.31-1.11-.31-.56,0-.97,.09-1.21,.28-.24,.19-.36,.41-.36,.66,0,.16,.05,.3,.15,.43,.1,.13,.26,.24,.47,.33,.12,.05,.49,.15,1.09,.31,.87,.23,1.48,.42,1.82,.57,.34,.15,.61,.36,.81,.65,.2,.28,.29,.63,.29,1.05s-.12,.8-.36,1.16c-.24,.36-.58,.64-1.04,.84-.45,.2-.96,.3-1.53,.3-.94,0-1.66-.2-2.16-.59-.5-.39-.81-.97-.95-1.74Z"/>
    <path d="M493.82,170.84v-7.26h1.1v1.02c.23-.36,.53-.64,.91-.86,.38-.22,.81-.32,1.29-.32,.54,0,.98,.11,1.32,.33,.34,.22,.59,.54,.73,.94,.57-.85,1.32-1.27,2.24-1.27,.72,0,1.27,.2,1.66,.6,.39,.4,.58,1.01,.58,1.84v4.98h-1.22v-4.57c0-.49-.04-.85-.12-1.06-.08-.22-.22-.39-.43-.52-.21-.13-.46-.2-.74-.2-.51,0-.93,.17-1.27,.51-.34,.34-.51,.88-.51,1.63v4.22h-1.23v-4.72c0-.55-.1-.96-.3-1.23-.2-.27-.53-.41-.98-.41-.35,0-.67,.09-.96,.27s-.51,.45-.64,.8c-.13,.35-.2,.86-.2,1.52v3.77h-1.23Z"/>
    <path d="M510.45,168.5l1.27,.16c-.2,.74-.57,1.32-1.11,1.73-.54,.41-1.23,.62-2.08,.62-1.06,0-1.9-.33-2.53-.98-.62-.65-.93-1.57-.93-2.75s.31-2.17,.94-2.84,1.45-1.01,2.45-1.01,1.76,.33,2.38,.99,.92,1.59,.92,2.79c0,.07,0,.18,0,.33h-5.41c.05,.8,.27,1.41,.68,1.83,.41,.42,.91,.64,1.52,.64,.45,0,.84-.12,1.16-.36,.32-.24,.57-.62,.76-1.13Zm-4.04-1.99h4.05c-.05-.61-.21-1.07-.46-1.37-.39-.47-.9-.71-1.52-.71-.56,0-1.04,.19-1.42,.57-.39,.38-.6,.88-.64,1.52Z"/>
  </g>
  <g id="tunjuelitoMapText">
    <g class="cls-6">
      <path d="M387.92,311.23v-8.84h-3.3v-1.18h7.94v1.18h-3.32v8.84h-1.33Z"/>
      <path d="M398,311.23v-1.07c-.57,.82-1.33,1.23-2.3,1.23-.43,0-.83-.08-1.2-.25-.37-.16-.65-.37-.83-.62-.18-.25-.31-.55-.38-.91-.05-.24-.08-.62-.08-1.15v-4.5h1.23v4.03c0,.64,.02,1.08,.08,1.3,.08,.32,.24,.58,.49,.76,.25,.18,.56,.28,.93,.28s.71-.09,1.04-.28c.32-.19,.55-.45,.69-.77,.13-.33,.2-.8,.2-1.42v-3.89h1.23v7.26h-1.1Z"/>
      <path d="M401.03,311.23v-7.26h1.11v1.03c.53-.8,1.3-1.2,2.31-1.2,.44,0,.84,.08,1.21,.24,.37,.16,.64,.36,.82,.62,.18,.26,.31,.56,.38,.91,.04,.23,.07,.63,.07,1.2v4.46h-1.23v-4.42c0-.5-.05-.88-.14-1.12s-.27-.45-.51-.59c-.24-.15-.53-.22-.86-.22-.52,0-.98,.17-1.36,.5-.38,.33-.57,.96-.57,1.89v3.96h-1.23Z"/>
      <path d="M407.25,314.05l.23-1.05c.25,.06,.44,.1,.58,.1,.25,0,.44-.08,.56-.25,.12-.17,.18-.58,.18-1.25v-7.63h1.23v7.66c0,.89-.12,1.52-.35,1.87-.3,.46-.79,.68-1.48,.68-.33,0-.65-.04-.96-.13Zm1.56-11.41v-1.43h1.23v1.43h-1.23Z"/>
      <path d="M416.69,311.23v-1.07c-.57,.82-1.33,1.23-2.3,1.23-.43,0-.83-.08-1.2-.25-.37-.16-.65-.37-.83-.62-.18-.25-.31-.55-.38-.91-.05-.24-.08-.62-.08-1.15v-4.5h1.23v4.03c0,.64,.02,1.08,.08,1.3,.08,.32,.24,.58,.49,.76,.25,.18,.56,.28,.93,.28s.71-.09,1.04-.28c.32-.19,.55-.45,.69-.77,.13-.33,.2-.8,.2-1.42v-3.89h1.23v7.26h-1.1Z"/>
      <path d="M424.68,308.9l1.27,.16c-.2,.74-.57,1.32-1.11,1.73-.54,.41-1.24,.62-2.08,.62-1.06,0-1.9-.33-2.53-.98-.62-.65-.93-1.57-.93-2.75s.31-2.17,.94-2.84c.63-.68,1.44-1.01,2.45-1.01s1.76,.33,2.38,.99c.62,.66,.92,1.59,.92,2.79,0,.07,0,.18,0,.33h-5.41c.04,.8,.27,1.41,.68,1.83,.41,.42,.91,.64,1.52,.64,.45,0,.84-.12,1.16-.36,.32-.24,.57-.62,.76-1.13Zm-4.04-1.99h4.05c-.05-.61-.21-1.07-.46-1.37-.39-.47-.9-.71-1.52-.71-.57,0-1.04,.19-1.43,.57-.38,.38-.6,.88-.64,1.52Z"/>
      <path d="M427.47,311.23v-10.02h1.23v10.02h-1.23Z"/>
      <path d="M430.62,302.63v-1.41h1.23v1.41h-1.23Zm0,8.61v-7.26h1.23v7.26h-1.23Z"/>
      <path d="M436.41,310.13l.18,1.09c-.35,.07-.66,.11-.93,.11-.45,0-.79-.07-1.04-.21-.25-.14-.42-.33-.52-.56-.1-.23-.15-.71-.15-1.45v-4.18h-.9v-.96h.9v-1.8l1.22-.74v2.54h1.24v.96h-1.24v4.24c0,.35,.02,.58,.06,.68,.04,.1,.11,.18,.21,.24,.1,.06,.24,.09,.42,.09,.14,0,.32-.02,.54-.05Z"/>
      <path d="M437.15,307.6c0-1.34,.37-2.34,1.12-2.99,.62-.54,1.38-.81,2.28-.81,1,0,1.81,.33,2.45,.98,.63,.65,.95,1.56,.95,2.71,0,.93-.14,1.67-.42,2.21-.28,.54-.69,.95-1.22,1.25-.54,.3-1.12,.45-1.75,.45-1.02,0-1.84-.33-2.46-.98-.63-.65-.94-1.59-.94-2.82Zm1.26,0c0,.93,.2,1.63,.61,2.09,.41,.46,.92,.69,1.53,.69s1.12-.23,1.52-.7c.41-.46,.61-1.17,.61-2.13,0-.9-.2-1.58-.61-2.04-.41-.46-.92-.7-1.52-.7s-1.13,.23-1.53,.69c-.41,.46-.61,1.15-.61,2.08Z"/>
    </g>
    <path id="path7756-2" data-name="path7756" class="cls-8" d="M363.6,221.17l39.4,76"/>
  </g>
  <g id="kennedyMapText" class="cls-6">
    <path d="M270.85,248.68v-10.02h1.33v4.97l4.98-4.97h1.8l-4.2,4.06,4.39,5.96h-1.75l-3.57-5.07-1.64,1.6v3.47h-1.33Z"/>
    <path d="M285.05,246.34l1.27,.16c-.2,.74-.57,1.32-1.11,1.73s-1.23,.62-2.08,.62c-1.06,0-1.9-.33-2.53-.98-.62-.65-.93-1.57-.93-2.75s.31-2.17,.94-2.84,1.44-1.01,2.45-1.01,1.76,.33,2.38,.99,.92,1.59,.92,2.79c0,.07,0,.18,0,.33h-5.41c.05,.8,.27,1.41,.68,1.83s.91,.64,1.52,.64c.45,0,.84-.12,1.16-.36s.57-.62,.76-1.13Zm-4.04-1.99h4.05c-.05-.61-.21-1.07-.46-1.37-.39-.47-.9-.71-1.52-.71-.56,0-1.04,.19-1.43,.57s-.6,.88-.64,1.52Z"/>
    <path d="M287.87,248.68v-7.26h1.11v1.03c.53-.8,1.3-1.2,2.31-1.2,.44,0,.84,.08,1.21,.24,.37,.16,.64,.36,.82,.62s.31,.56,.38,.91c.05,.23,.07,.63,.07,1.2v4.46h-1.23v-4.42c0-.5-.05-.88-.14-1.12-.1-.25-.27-.45-.51-.59-.24-.15-.53-.22-.86-.22-.52,0-.98,.17-1.36,.5s-.57,.96-.57,1.89v3.96h-1.23Z"/>
    <path d="M295.65,248.68v-7.26h1.11v1.03c.53-.8,1.3-1.2,2.31-1.2,.44,0,.84,.08,1.21,.24,.37,.16,.64,.36,.82,.62s.31,.56,.38,.91c.05,.23,.07,.63,.07,1.2v4.46h-1.23v-4.42c0-.5-.05-.88-.14-1.12-.1-.25-.27-.45-.51-.59-.24-.15-.53-.22-.86-.22-.52,0-.98,.17-1.36,.5s-.57,.96-.57,1.89v3.96h-1.23Z"/>
    <path d="M308.41,246.34l1.27,.16c-.2,.74-.57,1.32-1.11,1.73s-1.23,.62-2.08,.62c-1.06,0-1.9-.33-2.53-.98-.62-.65-.93-1.57-.93-2.75s.31-2.17,.94-2.84,1.44-1.01,2.45-1.01,1.76,.33,2.38,.99,.92,1.59,.92,2.79c0,.07,0,.18,0,.33h-5.41c.05,.8,.27,1.41,.68,1.83s.91,.64,1.52,.64c.45,0,.84-.12,1.16-.36s.57-.62,.76-1.13Zm-4.04-1.99h4.05c-.05-.61-.21-1.07-.46-1.37-.39-.47-.9-.71-1.52-.71-.56,0-1.04,.19-1.43,.57s-.6,.88-.64,1.52Z"/>
    <path d="M315.94,248.68v-.92c-.46,.72-1.14,1.08-2.03,1.08-.58,0-1.11-.16-1.6-.48s-.86-.76-1.13-1.34c-.27-.57-.4-1.23-.4-1.97s.12-1.38,.36-1.97c.24-.59,.6-1.04,1.09-1.36s1.02-.47,1.62-.47c.44,0,.83,.09,1.17,.28,.34,.18,.62,.42,.83,.72v-3.6h1.22v10.02h-1.14Zm-3.89-3.62c0,.93,.2,1.62,.59,2.08s.85,.69,1.39,.69,.99-.22,1.37-.66c.38-.44,.56-1.11,.56-2.01,0-.99-.19-1.72-.57-2.19s-.85-.7-1.42-.7-1,.22-1.37,.67-.55,1.15-.55,2.11Z"/>
    <path d="M318.96,251.48l-.14-1.16c.27,.07,.5,.11,.7,.11,.27,0,.49-.05,.66-.14s.3-.22,.4-.38c.08-.12,.2-.43,.38-.92,.02-.07,.06-.17,.11-.3l-2.75-7.27h1.33l1.51,4.2c.2,.53,.37,1.09,.53,1.68,.14-.57,.31-1.12,.51-1.65l1.55-4.23h1.23l-2.76,7.38c-.3,.8-.53,1.35-.69,1.65-.22,.41-.47,.7-.75,.89-.28,.19-.62,.28-1.01,.28-.24,0-.5-.05-.79-.15Z"/>
  </g>
  <g id="fontibonMapText" class="cls-6">
    <path d="M203.34,219.19v-10.02h6.76v1.18h-5.43v3.1h4.7v1.18h-4.7v4.55h-1.33Z"/>
    <path d="M211.21,215.56c0-1.34,.37-2.34,1.12-2.99,.62-.54,1.39-.81,2.28-.81,1,0,1.81,.33,2.45,.98,.63,.65,.95,1.56,.95,2.71,0,.93-.14,1.67-.42,2.21-.28,.54-.69,.95-1.22,1.25s-1.12,.44-1.75,.44c-1.02,0-1.84-.33-2.46-.98s-.94-1.59-.94-2.82Zm1.26,0c0,.93,.2,1.63,.61,2.09,.41,.46,.92,.69,1.53,.69s1.12-.23,1.52-.7,.61-1.17,.61-2.13c0-.9-.2-1.58-.61-2.04-.41-.46-.92-.69-1.52-.69s-1.13,.23-1.53,.69-.61,1.16-.61,2.08Z"/>
    <path d="M219.45,219.19v-7.26h1.11v1.03c.53-.8,1.3-1.2,2.31-1.2,.44,0,.84,.08,1.21,.24,.37,.16,.64,.36,.82,.62s.31,.56,.38,.91c.05,.23,.07,.63,.07,1.2v4.46h-1.23v-4.42c0-.5-.05-.88-.14-1.12-.1-.25-.27-.45-.51-.59-.24-.15-.53-.22-.86-.22-.52,0-.98,.17-1.36,.5s-.57,.96-.57,1.89v3.96h-1.23Z"/>
    <path d="M229.92,218.09l.18,1.09c-.35,.07-.66,.11-.93,.11-.45,0-.79-.07-1.04-.21s-.42-.33-.52-.56c-.1-.23-.15-.71-.15-1.45v-4.18h-.9v-.96h.9v-1.8l1.22-.74v2.54h1.24v.96h-1.24v4.25c0,.35,.02,.58,.06,.68s.11,.18,.21,.24,.24,.09,.42,.09c.14,0,.32-.02,.54-.05Z"/>
    <path d="M231.13,210.58v-1.42h1.23v1.42h-1.23Zm0,8.61v-7.26h1.23v7.26h-1.23Z"/>
    <path d="M235.37,219.19h-1.14v-10.02h1.23v3.58c.52-.65,1.18-.98,1.99-.98,.45,0,.87,.09,1.27,.27,.4,.18,.73,.43,.98,.76,.26,.33,.46,.72,.6,1.18s.22,.95,.22,1.48c0,1.24-.31,2.21-.92,2.88s-1.35,1.02-2.21,1.02-1.53-.36-2.02-1.07v.91Zm-.01-3.68c0,.87,.12,1.5,.36,1.89,.39,.63,.91,.95,1.57,.95,.54,0,1-.23,1.39-.7,.39-.47,.59-1.16,.59-2.09s-.19-1.65-.56-2.1-.83-.68-1.36-.68-1,.23-1.39,.7c-.39,.47-.59,1.14-.59,2.03Z"/>
    <path d="M241.57,215.56c0-1.34,.37-2.34,1.12-2.99,.62-.54,1.39-.81,2.28-.81,1,0,1.81,.33,2.45,.98,.63,.65,.95,1.56,.95,2.71,0,.93-.14,1.67-.42,2.21-.28,.54-.69,.95-1.22,1.25s-1.12,.44-1.75,.44c-1.02,0-1.84-.33-2.46-.98s-.94-1.59-.94-2.82Zm1.26,0c0,.93,.2,1.63,.61,2.09,.41,.46,.92,.69,1.53,.69s1.12-.23,1.52-.7,.61-1.17,.61-2.13c0-.9-.2-1.58-.61-2.04-.41-.46-.92-.69-1.52-.69s-1.13,.23-1.53,.69-.61,1.16-.61,2.08Zm1.46-4.53l.91-1.91h1.61l-1.5,1.91h-1.02Z"/>
    <path d="M249.81,219.19v-7.26h1.11v1.03c.53-.8,1.3-1.2,2.31-1.2,.44,0,.84,.08,1.21,.24,.37,.16,.64,.36,.82,.62s.31,.56,.38,.91c.05,.23,.07,.63,.07,1.2v4.46h-1.23v-4.42c0-.5-.05-.88-.14-1.12-.1-.25-.27-.45-.51-.59-.24-.15-.53-.22-.86-.22-.52,0-.98,.17-1.36,.5s-.57,.96-.57,1.89v3.96h-1.23Z"/>
  </g>
  <g id="subaMaptext" class="cls-6">
    <path d="M101.03,135.18l1.25-.11c.06,.5,.2,.91,.41,1.23,.22,.32,.55,.58,1.01,.78,.46,.2,.97,.3,1.54,.3,.51,0,.95-.08,1.34-.23s.68-.36,.86-.62c.19-.26,.28-.55,.28-.86s-.09-.59-.27-.82c-.18-.23-.48-.43-.9-.59-.27-.1-.86-.27-1.78-.49-.92-.22-1.57-.43-1.93-.62-.48-.25-.83-.56-1.07-.93-.23-.37-.35-.79-.35-1.25,0-.51,.14-.98,.43-1.42,.29-.44,.71-.77,1.26-1s1.16-.34,1.84-.34c.74,0,1.4,.12,1.97,.36,.57,.24,1,.59,1.31,1.06s.47,.99,.49,1.58l-1.27,.1c-.07-.63-.3-1.11-.69-1.44s-.98-.49-1.75-.49-1.39,.15-1.75,.44c-.37,.29-.55,.65-.55,1.06,0,.36,.13,.66,.39,.89,.26,.23,.92,.47,2,.71,1.08,.24,1.82,.46,2.22,.64,.58,.27,1.01,.61,1.29,1.02,.28,.41,.42,.89,.42,1.43s-.15,1.04-.46,1.51c-.31,.47-.74,.84-1.32,1.1-.57,.26-1.22,.39-1.93,.39-.91,0-1.67-.13-2.28-.4s-1.09-.66-1.44-1.19c-.35-.53-.53-1.13-.55-1.8Z"/>
    <path d="M115.42,138.4v-1.07c-.56,.82-1.33,1.23-2.3,1.23-.43,0-.83-.08-1.2-.25s-.65-.37-.83-.62c-.18-.25-.31-.55-.38-.91-.05-.24-.08-.62-.08-1.15v-4.5h1.23v4.03c0,.64,.02,1.08,.08,1.3,.08,.32,.24,.58,.49,.76,.25,.18,.56,.28,.93,.28s.72-.09,1.04-.28c.32-.19,.55-.45,.69-.77,.13-.33,.2-.8,.2-1.42v-3.89h1.23v7.26h-1.1Z"/>
    <path d="M119.59,138.4h-1.14v-10.02h1.23v3.58c.52-.65,1.18-.98,1.99-.98,.45,0,.87,.09,1.27,.27,.4,.18,.73,.43,.98,.76,.26,.33,.46,.72,.6,1.18s.22,.95,.22,1.48c0,1.24-.31,2.21-.92,2.88s-1.35,1.02-2.21,1.02-1.53-.36-2.02-1.07v.91Zm-.01-3.68c0,.87,.12,1.5,.36,1.89,.39,.63,.91,.95,1.57,.95,.54,0,1-.23,1.39-.7,.39-.47,.59-1.16,.59-2.09s-.19-1.65-.56-2.1-.83-.68-1.36-.68-1,.23-1.39,.7c-.39,.47-.59,1.14-.59,2.03Z"/>
    <path d="M130.97,137.5c-.46,.39-.89,.66-1.32,.82s-.87,.24-1.36,.24c-.8,0-1.41-.2-1.84-.58-.43-.39-.64-.89-.64-1.49,0-.36,.08-.68,.24-.97,.16-.29,.37-.53,.64-.71s.56-.31,.89-.4c.24-.06,.61-.12,1.09-.18,.99-.12,1.73-.26,2.19-.42,0-.17,0-.28,0-.32,0-.5-.12-.85-.35-1.06-.31-.28-.78-.42-1.4-.42-.58,0-1.01,.1-1.28,.3-.28,.2-.48,.56-.61,1.08l-1.2-.16c.11-.51,.29-.93,.54-1.25,.25-.32,.61-.56,1.09-.73,.47-.17,1.02-.26,1.65-.26s1.12,.07,1.51,.22,.67,.33,.85,.55c.18,.22,.31,.5,.38,.84,.04,.21,.06,.59,.06,1.13v1.64c0,1.14,.03,1.87,.08,2.17,.05,.3,.16,.59,.31,.87h-1.29c-.13-.25-.21-.55-.25-.9Zm-.1-2.75c-.45,.18-1.12,.34-2.01,.46-.51,.07-.86,.16-1.07,.25s-.37,.22-.49,.4c-.11,.18-.17,.37-.17,.58,0,.33,.12,.6,.37,.82s.61,.33,1.09,.33,.9-.1,1.26-.31c.37-.21,.64-.49,.81-.85,.13-.28,.2-.69,.2-1.23v-.45Z"/>
  </g>
  <g id="engativaMapText" class="cls-6">
    <path d="M170.86,183.74v-10.02h7.25v1.18h-5.92v3.07h5.54v1.18h-5.54v3.41h6.15v1.18h-7.48Z"/>
    <path d="M180.02,183.74v-7.26h1.11v1.03c.53-.8,1.3-1.2,2.31-1.2,.44,0,.84,.08,1.21,.24,.37,.16,.64,.36,.82,.62s.31,.56,.38,.91c.05,.23,.07,.63,.07,1.2v4.46h-1.23v-4.42c0-.5-.05-.88-.14-1.12-.1-.25-.27-.45-.51-.59-.24-.15-.53-.22-.86-.22-.52,0-.98,.17-1.36,.5s-.57,.96-.57,1.89v3.96h-1.23Z"/>
    <path d="M187.58,184.34l1.2,.18c.05,.37,.19,.64,.42,.81,.31,.23,.72,.34,1.25,.34,.57,0,1.01-.11,1.32-.34s.52-.55,.63-.96c.06-.25,.09-.78,.09-1.58-.54,.63-1.21,.95-2.01,.95-1,0-1.77-.36-2.32-1.08s-.82-1.58-.82-2.59c0-.69,.13-1.33,.38-1.92,.25-.59,.61-1.04,1.09-1.36s1.04-.48,1.68-.48c.86,0,1.56,.35,2.12,1.04v-.88h1.13v6.28c0,1.13-.12,1.93-.35,2.4-.23,.47-.59,.84-1.09,1.12s-1.11,.41-1.84,.41c-.87,0-1.57-.19-2.1-.58-.53-.39-.79-.98-.77-1.76Zm1.02-4.36c0,.95,.19,1.65,.57,2.08s.85,.66,1.42,.66,1.04-.22,1.42-.65c.38-.43,.57-1.12,.57-2.05s-.2-1.56-.59-2.01-.87-.68-1.43-.68-1.01,.22-1.39,.67c-.38,.44-.57,1.1-.57,1.98Z"/>
    <path d="M200.33,182.85c-.46,.39-.89,.66-1.32,.82s-.87,.24-1.36,.24c-.8,0-1.41-.2-1.84-.58-.43-.39-.64-.89-.64-1.49,0-.36,.08-.68,.24-.97,.16-.29,.37-.53,.64-.71s.56-.31,.89-.4c.24-.06,.61-.12,1.09-.18,.99-.12,1.73-.26,2.19-.42,0-.17,0-.28,0-.32,0-.5-.12-.85-.35-1.06-.31-.28-.78-.42-1.4-.42-.58,0-1.01,.1-1.28,.3-.28,.2-.48,.56-.61,1.08l-1.2-.16c.11-.51,.29-.93,.54-1.25,.25-.32,.61-.56,1.09-.73,.47-.17,1.02-.26,1.65-.26s1.12,.07,1.51,.22,.67,.33,.85,.55c.18,.22,.31,.5,.38,.84,.04,.21,.06,.59,.06,1.13v1.64c0,1.14,.03,1.87,.08,2.17,.05,.3,.16,.59,.31,.87h-1.29c-.13-.25-.21-.55-.25-.9Zm-.1-2.75c-.45,.18-1.12,.34-2.01,.46-.51,.07-.86,.16-1.07,.25s-.37,.22-.49,.4c-.11,.18-.17,.37-.17,.58,0,.33,.12,.6,.37,.82s.61,.33,1.09,.33,.9-.1,1.26-.31c.37-.21,.64-.49,.81-.85,.13-.28,.2-.69,.2-1.23v-.45Z"/>
    <path d="M206.06,182.64l.18,1.09c-.35,.07-.66,.11-.93,.11-.45,0-.79-.07-1.04-.21s-.42-.33-.52-.56c-.1-.23-.15-.71-.15-1.45v-4.18h-.9v-.96h.9v-1.8l1.22-.74v2.54h1.24v.96h-1.24v4.25c0,.35,.02,.58,.06,.68s.11,.18,.21,.24,.24,.09,.42,.09c.14,0,.32-.02,.54-.05Z"/>
    <path d="M207.27,175.14v-1.42h1.23v1.42h-1.23Zm0,8.61v-7.26h1.23v7.26h-1.23Z"/>
    <path d="M212.39,183.74l-2.76-7.26h1.3l1.56,4.35c.17,.47,.32,.96,.46,1.46,.11-.38,.26-.84,.46-1.38l1.61-4.43h1.26l-2.75,7.26h-1.15Z"/>
    <path d="M222.11,182.85c-.46,.39-.89,.66-1.32,.82s-.87,.24-1.36,.24c-.8,0-1.41-.2-1.84-.58-.43-.39-.64-.89-.64-1.49,0-.36,.08-.68,.24-.97,.16-.29,.37-.53,.64-.71s.56-.31,.89-.4c.24-.06,.61-.12,1.09-.18,.99-.12,1.73-.26,2.19-.42,0-.17,0-.28,0-.32,0-.5-.12-.85-.35-1.06-.31-.28-.78-.42-1.4-.42-.58,0-1.01,.1-1.28,.3-.28,.2-.48,.56-.61,1.08l-1.2-.16c.11-.51,.29-.93,.54-1.25,.25-.32,.61-.56,1.09-.73,.47-.17,1.02-.26,1.65-.26s1.12,.07,1.51,.22,.67,.33,.85,.55c.18,.22,.31,.5,.38,.84,.04,.21,.06,.59,.06,1.13v1.64c0,1.14,.03,1.87,.08,2.17,.05,.3,.16,.59,.31,.87h-1.29c-.13-.25-.21-.55-.25-.9Zm-.1-2.75c-.45,.18-1.12,.34-2.01,.46-.51,.07-.86,.16-1.07,.25s-.37,.22-.49,.4c-.11,.18-.17,.37-.17,.58,0,.33,.12,.6,.37,.82s.61,.33,1.09,.33,.9-.1,1.26-.31c.37-.21,.64-.49,.81-.85,.13-.28,.2-.69,.2-1.23v-.45Zm-2.39-4.52l.91-1.91h1.61l-1.5,1.91h-1.02Z"/>
  </g>
  <g id="teusaquilloMapText">
    <g class="cls-6">
      <path d="M155.21,311.23v-8.84h-3.3v-1.18h7.94v1.18h-3.32v8.84h-1.33Z"/>
      <path d="M164.47,308.9l1.27,.16c-.2,.74-.57,1.32-1.11,1.73s-1.23,.62-2.08,.62c-1.06,0-1.9-.33-2.53-.98-.62-.65-.93-1.57-.93-2.75s.31-2.17,.94-2.84,1.44-1.01,2.45-1.01,1.76,.33,2.38,.99,.92,1.59,.92,2.79c0,.07,0,.18,0,.33h-5.41c.05,.8,.27,1.41,.68,1.83s.91,.64,1.52,.64c.45,0,.84-.12,1.16-.36s.57-.62,.76-1.13Zm-4.04-1.99h4.05c-.05-.61-.21-1.07-.46-1.37-.39-.47-.9-.71-1.52-.71-.56,0-1.04,.19-1.43,.57s-.6,.88-.64,1.52Z"/>
      <path d="M172.05,311.23v-1.07c-.56,.82-1.33,1.23-2.3,1.23-.43,0-.83-.08-1.2-.25s-.65-.37-.83-.62c-.18-.25-.31-.55-.38-.91-.05-.24-.08-.62-.08-1.15v-4.5h1.23v4.03c0,.64,.02,1.08,.08,1.3,.08,.32,.24,.58,.49,.76,.25,.18,.56,.28,.93,.28s.72-.09,1.04-.28c.32-.19,.55-.45,.69-.77,.13-.33,.2-.8,.2-1.42v-3.89h1.23v7.26h-1.1Z"/>
      <path d="M174.58,309.07l1.22-.19c.07,.49,.26,.86,.57,1.12s.75,.39,1.31,.39,.98-.12,1.26-.35c.27-.23,.41-.5,.41-.81,0-.28-.12-.5-.36-.66-.17-.11-.59-.25-1.26-.42-.9-.23-1.53-.42-1.88-.59-.35-.17-.61-.4-.79-.69-.18-.29-.27-.62-.27-.97,0-.32,.07-.62,.22-.9,.15-.28,.35-.5,.6-.69,.19-.14,.45-.26,.78-.36,.33-.1,.68-.15,1.06-.15,.57,0,1.07,.08,1.5,.25s.75,.39,.95,.67c.21,.28,.35,.66,.42,1.12l-1.2,.16c-.05-.37-.21-.67-.48-.88s-.63-.31-1.11-.31c-.56,0-.97,.09-1.21,.28s-.36,.41-.36,.66c0,.16,.05,.3,.15,.43,.1,.13,.26,.24,.47,.33,.12,.05,.49,.15,1.09,.31,.87,.23,1.48,.42,1.82,.57,.34,.15,.61,.36,.81,.65s.29,.63,.29,1.05-.12,.8-.36,1.16c-.24,.36-.58,.64-1.04,.84-.45,.2-.96,.3-1.53,.3-.94,0-1.66-.2-2.16-.59s-.81-.97-.95-1.74Z"/>
      <path d="M186.81,310.34c-.46,.39-.89,.66-1.32,.82s-.87,.24-1.36,.24c-.8,0-1.41-.2-1.84-.58-.43-.39-.64-.89-.64-1.49,0-.36,.08-.68,.24-.97,.16-.29,.37-.53,.64-.71s.56-.31,.89-.4c.24-.06,.61-.12,1.09-.18,.99-.12,1.73-.26,2.19-.42,0-.17,0-.28,0-.32,0-.5-.12-.85-.35-1.06-.31-.28-.78-.42-1.4-.42-.58,0-1.01,.1-1.28,.3-.28,.2-.48,.56-.61,1.08l-1.2-.16c.11-.51,.29-.93,.54-1.25,.25-.32,.61-.56,1.09-.73,.47-.17,1.02-.26,1.65-.26s1.12,.07,1.51,.22,.67,.33,.85,.55c.18,.22,.31,.5,.38,.84,.04,.21,.06,.59,.06,1.13v1.64c0,1.14,.03,1.87,.08,2.17,.05,.3,.16,.59,.31,.87h-1.29c-.13-.25-.21-.55-.25-.9Zm-.1-2.75c-.45,.18-1.12,.34-2.01,.46-.51,.07-.86,.16-1.07,.25s-.37,.22-.49,.4c-.11,.18-.17,.37-.17,.58,0,.33,.12,.6,.37,.82s.61,.33,1.09,.33,.9-.1,1.26-.31c.37-.21,.64-.49,.81-.85,.13-.28,.2-.69,.2-1.23v-.45Z"/>
      <path d="M194.49,314.02v-3.55c-.19,.27-.46,.49-.8,.67s-.71,.27-1.1,.27c-.86,0-1.6-.34-2.23-1.03s-.93-1.63-.93-2.83c0-.73,.13-1.38,.38-1.96s.62-1.02,1.1-1.32c.48-.3,1.01-.45,1.58-.45,.9,0,1.6,.38,2.12,1.13v-.97h1.11v10.04h-1.23Zm-3.79-6.43c0,.93,.2,1.63,.59,2.1,.39,.47,.86,.7,1.41,.7s.98-.22,1.35-.67c.38-.45,.57-1.12,.57-2.03,0-.97-.2-1.69-.6-2.18s-.87-.73-1.4-.73-.99,.23-1.36,.68c-.37,.45-.56,1.16-.56,2.12Z"/>
      <path d="M202.4,311.23v-1.07c-.56,.82-1.33,1.23-2.3,1.23-.43,0-.83-.08-1.2-.25s-.65-.37-.83-.62c-.18-.25-.31-.55-.38-.91-.05-.24-.08-.62-.08-1.15v-4.5h1.23v4.03c0,.64,.02,1.08,.08,1.3,.08,.32,.24,.58,.49,.76,.25,.18,.56,.28,.93,.28s.72-.09,1.04-.28c.32-.19,.55-.45,.69-.77,.13-.33,.2-.8,.2-1.42v-3.89h1.23v7.26h-1.1Z"/>
      <path d="M205.44,302.63v-1.42h1.23v1.42h-1.23Zm0,8.61v-7.26h1.23v7.26h-1.23Z"/>
      <path d="M208.52,311.23v-10.02h1.23v10.02h-1.23Z"/>
      <path d="M211.63,311.23v-10.02h1.23v10.02h-1.23Z"/>
      <path d="M214.31,307.6c0-1.34,.37-2.34,1.12-2.99,.62-.54,1.39-.81,2.28-.81,1,0,1.81,.33,2.45,.98,.63,.65,.95,1.56,.95,2.71,0,.93-.14,1.67-.42,2.21-.28,.54-.69,.95-1.22,1.25s-1.12,.44-1.75,.44c-1.02,0-1.84-.33-2.46-.98s-.94-1.59-.94-2.82Zm1.26,0c0,.93,.2,1.63,.61,2.09,.41,.46,.92,.69,1.53,.69s1.12-.23,1.52-.7,.61-1.17,.61-2.13c0-.9-.2-1.58-.61-2.04-.41-.46-.92-.69-1.52-.69s-1.13,.23-1.53,.69-.61,1.16-.61,2.08Z"/>
    </g>
    <path id="path7756-3" data-name="path7756" class="cls-8" d="M280.9,151.37l-101.8,149.4"/>
  </g>
  <g id="martiresMapText">
    <g class="cls-6">
      <path d="M482.41,68.68v-10.02h1.33v8.84h4.94v1.18h-6.26Z"/>
      <path d="M489.63,65.05c0-1.34,.37-2.34,1.12-2.99,.62-.54,1.38-.81,2.28-.81,1,0,1.81,.33,2.45,.98,.63,.65,.95,1.56,.95,2.71,0,.93-.14,1.67-.42,2.21-.28,.54-.69,.95-1.22,1.25-.54,.3-1.12,.44-1.75,.44-1.02,0-1.84-.33-2.46-.98-.63-.65-.94-1.59-.94-2.82Zm1.26,0c0,.93,.2,1.63,.61,2.09,.41,.46,.92,.69,1.53,.69s1.12-.23,1.52-.7c.41-.46,.61-1.17,.61-2.13,0-.9-.2-1.58-.61-2.04-.41-.46-.92-.69-1.52-.69s-1.13,.23-1.53,.69c-.41,.46-.61,1.16-.61,2.08Z"/>
      <path d="M497.38,66.51l1.22-.19c.07,.49,.26,.86,.57,1.12,.31,.26,.75,.39,1.31,.39s.98-.12,1.26-.35c.27-.23,.41-.5,.41-.81,0-.28-.12-.5-.36-.66-.17-.11-.59-.25-1.26-.42-.9-.23-1.53-.42-1.88-.59-.35-.17-.61-.4-.79-.69-.18-.29-.27-.62-.27-.97,0-.32,.07-.62,.22-.9,.15-.28,.35-.5,.61-.69,.19-.14,.45-.26,.78-.36,.33-.1,.68-.15,1.06-.15,.57,0,1.07,.08,1.5,.25s.75,.39,.95,.67c.21,.28,.35,.66,.42,1.12l-1.2,.16c-.05-.37-.21-.67-.48-.88-.26-.21-.63-.31-1.11-.31-.57,0-.97,.09-1.21,.28-.24,.19-.36,.41-.36,.66,0,.16,.05,.3,.15,.43,.1,.13,.26,.24,.47,.33,.12,.05,.49,.15,1.09,.31,.87,.23,1.48,.42,1.82,.57,.34,.15,.61,.36,.81,.65,.2,.28,.29,.63,.29,1.05s-.12,.8-.36,1.16c-.24,.36-.58,.64-1.04,.84-.45,.2-.96,.3-1.53,.3-.94,0-1.66-.2-2.16-.59-.49-.39-.81-.97-.95-1.74Z"/>
      <path d="M508.88,68.68v-10.02h2l2.37,7.1c.22,.66,.38,1.16,.48,1.48,.11-.36,.29-.9,.53-1.61l2.4-6.97h1.78v10.02h-1.28v-8.39l-2.91,8.39h-1.2l-2.9-8.53v8.53h-1.28Z"/>
      <path d="M525.17,67.78c-.46,.39-.89,.66-1.32,.82-.42,.16-.87,.24-1.36,.24-.8,0-1.41-.2-1.84-.58-.43-.39-.64-.89-.64-1.49,0-.36,.08-.68,.24-.97,.16-.29,.37-.53,.64-.71,.26-.18,.56-.31,.89-.4,.24-.06,.61-.12,1.09-.18,.99-.12,1.72-.26,2.19-.42,0-.17,0-.28,0-.32,0-.5-.12-.85-.35-1.06-.31-.28-.78-.42-1.4-.42-.58,0-1.01,.1-1.28,.3-.28,.2-.48,.56-.61,1.08l-1.2-.16c.11-.51,.29-.93,.54-1.25,.25-.32,.61-.56,1.09-.73,.47-.17,1.02-.26,1.65-.26s1.12,.07,1.51,.22c.39,.15,.67,.33,.85,.55,.18,.22,.31,.5,.38,.84,.04,.21,.06,.59,.06,1.13v1.64c0,1.14,.03,1.87,.08,2.17,.05,.3,.16,.59,.31,.87h-1.29c-.13-.25-.21-.55-.25-.9Zm-.1-2.75c-.45,.18-1.12,.34-2.01,.46-.51,.07-.86,.16-1.07,.25-.21,.09-.37,.22-.49,.4-.11,.18-.17,.37-.17,.58,0,.33,.12,.6,.37,.82,.25,.22,.61,.33,1.09,.33s.9-.1,1.26-.31c.37-.21,.64-.49,.81-.85,.13-.28,.2-.69,.2-1.23v-.45Zm-2.39-4.52l.91-1.91h1.61l-1.5,1.91h-1.02Z"/>
      <path d="M528.2,68.68v-7.26h1.11v1.1c.28-.51,.54-.85,.78-1.02s.5-.25,.79-.25c.41,0,.84,.13,1.26,.4l-.42,1.14c-.3-.18-.6-.27-.9-.27-.27,0-.51,.08-.72,.24-.21,.16-.37,.39-.46,.67-.14,.44-.21,.92-.21,1.44v3.8h-1.23Z"/>
      <path d="M535.56,67.58l.18,1.09c-.35,.07-.66,.11-.93,.11-.45,0-.79-.07-1.04-.21s-.42-.33-.52-.56c-.1-.23-.15-.71-.15-1.45v-4.18h-.9v-.96h.9v-1.8l1.22-.74v2.54h1.24v.96h-1.24v4.25c0,.35,.02,.58,.06,.68,.04,.1,.11,.18,.21,.24,.1,.06,.24,.09,.42,.09,.14,0,.32-.02,.54-.05Z"/>
      <path d="M536.77,60.07v-1.42h1.23v1.42h-1.23Zm0,8.61v-7.26h1.23v7.26h-1.23Z"/>
      <path d="M539.86,68.68v-7.26h1.11v1.1c.28-.51,.54-.85,.78-1.02s.5-.25,.79-.25c.41,0,.84,.13,1.26,.4l-.42,1.14c-.3-.18-.6-.27-.9-.27-.27,0-.51,.08-.72,.24-.21,.16-.37,.39-.46,.67-.14,.44-.21,.92-.21,1.44v3.8h-1.23Z"/>
      <path d="M549.51,66.34l1.27,.16c-.2,.74-.57,1.32-1.11,1.73-.54,.41-1.24,.62-2.08,.62-1.06,0-1.9-.33-2.53-.98-.62-.65-.93-1.57-.93-2.75s.31-2.17,.94-2.84,1.44-1.01,2.45-1.01,1.76,.33,2.38,.99,.92,1.59,.92,2.79c0,.07,0,.18,0,.33h-5.41c.04,.8,.27,1.41,.68,1.83,.41,.42,.91,.64,1.52,.64,.45,0,.84-.12,1.16-.36,.32-.24,.57-.62,.76-1.13Zm-4.04-1.99h4.05c-.05-.61-.21-1.07-.46-1.37-.39-.47-.9-.71-1.52-.71-.57,0-1.04,.19-1.43,.57-.38,.38-.6,.88-.64,1.52Z"/>
      <path d="M551.83,66.51l1.22-.19c.07,.49,.26,.86,.57,1.12,.31,.26,.75,.39,1.31,.39s.98-.12,1.26-.35c.27-.23,.41-.5,.41-.81,0-.28-.12-.5-.36-.66-.17-.11-.59-.25-1.26-.42-.9-.23-1.53-.42-1.88-.59-.35-.17-.61-.4-.79-.69-.18-.29-.27-.62-.27-.97,0-.32,.07-.62,.22-.9,.15-.28,.35-.5,.61-.69,.19-.14,.45-.26,.78-.36,.33-.1,.68-.15,1.06-.15,.57,0,1.07,.08,1.5,.25s.75,.39,.95,.67c.21,.28,.35,.66,.42,1.12l-1.2,.16c-.05-.37-.21-.67-.48-.88-.26-.21-.63-.31-1.11-.31-.57,0-.97,.09-1.21,.28-.24,.19-.36,.41-.36,.66,0,.16,.05,.3,.15,.43,.1,.13,.26,.24,.47,.33,.12,.05,.49,.15,1.09,.31,.87,.23,1.48,.42,1.82,.57,.34,.15,.61,.36,.81,.65,.2,.28,.29,.63,.29,1.05s-.12,.8-.36,1.16c-.24,.36-.58,.64-1.04,.84-.45,.2-.96,.3-1.53,.3-.94,0-1.66-.2-2.16-.59-.49-.39-.81-.97-.95-1.74Z"/>
    </g>
    <path id="path7756-4" data-name="path7756" class="cls-7" d="M333.7,155.77l141.2-88.8"/>
  </g>
  <g id="candelariaMapText">
    <g class="cls-6">
      <path d="M462.6,49.03v-10.02h1.33v8.84h4.94v1.18h-6.26Z"/>
      <path d="M475.02,48.13c-.46,.39-.89,.66-1.32,.82-.42,.16-.87,.24-1.36,.24-.8,0-1.41-.2-1.84-.58-.43-.39-.64-.89-.64-1.49,0-.36,.08-.68,.24-.97,.16-.29,.37-.53,.64-.71,.26-.18,.56-.31,.89-.4,.24-.06,.61-.12,1.09-.18,.99-.12,1.72-.26,2.19-.42,0-.17,0-.28,0-.32,0-.5-.12-.85-.35-1.06-.31-.28-.78-.42-1.4-.42-.58,0-1.01,.1-1.28,.3-.28,.2-.48,.56-.61,1.08l-1.2-.16c.11-.51,.29-.93,.54-1.25,.25-.32,.61-.56,1.09-.73,.47-.17,1.02-.26,1.65-.26s1.12,.07,1.51,.22c.39,.15,.67,.33,.85,.55,.18,.22,.31,.5,.38,.84,.04,.21,.06,.59,.06,1.13v1.64c0,1.14,.03,1.87,.08,2.17,.05,.3,.16,.59,.31,.87h-1.29c-.13-.25-.21-.55-.25-.9Zm-.1-2.75c-.45,.18-1.12,.34-2.01,.46-.51,.07-.86,.16-1.07,.25-.21,.09-.37,.22-.49,.4-.11,.18-.17,.37-.17,.58,0,.33,.12,.6,.37,.82,.25,.22,.61,.33,1.09,.33s.9-.1,1.26-.31c.37-.21,.64-.49,.81-.85,.13-.28,.2-.69,.2-1.23v-.45Z"/>
      <path d="M489.27,45.51l1.33,.33c-.28,1.09-.78,1.92-1.5,2.49-.72,.57-1.61,.86-2.65,.86s-1.96-.22-2.64-.66c-.68-.44-1.19-1.08-1.54-1.91-.35-.83-.53-1.73-.53-2.69,0-1.04,.2-1.95,.6-2.73,.4-.78,.97-1.37,1.7-1.77,.74-.4,1.55-.6,2.43-.6,1,0,1.85,.25,2.53,.77s1.16,1.23,1.43,2.15l-1.31,.31c-.23-.73-.57-1.26-1.01-1.59-.44-.33-1-.5-1.67-.5-.77,0-1.41,.18-1.93,.55-.52,.37-.88,.87-1.09,1.49-.21,.62-.31,1.26-.31,1.92,0,.85,.12,1.6,.37,2.23,.25,.64,.63,1.11,1.16,1.43,.52,.31,1.09,.47,1.7,.47,.74,0,1.37-.21,1.89-.64,.51-.43,.86-1.06,1.05-1.91Z"/>
      <path d="M496.81,48.13c-.46,.39-.89,.66-1.32,.82-.42,.16-.87,.24-1.36,.24-.8,0-1.41-.2-1.84-.58-.43-.39-.64-.89-.64-1.49,0-.36,.08-.68,.24-.97,.16-.29,.37-.53,.64-.71,.26-.18,.56-.31,.89-.4,.24-.06,.61-.12,1.09-.18,.99-.12,1.72-.26,2.19-.42,0-.17,0-.28,0-.32,0-.5-.12-.85-.35-1.06-.31-.28-.78-.42-1.4-.42-.58,0-1.01,.1-1.28,.3-.28,.2-.48,.56-.61,1.08l-1.2-.16c.11-.51,.29-.93,.54-1.25,.25-.32,.61-.56,1.09-.73,.47-.17,1.02-.26,1.65-.26s1.12,.07,1.51,.22c.39,.15,.67,.33,.85,.55,.18,.22,.31,.5,.38,.84,.04,.21,.06,.59,.06,1.13v1.64c0,1.14,.03,1.87,.08,2.17,.05,.3,.16,.59,.31,.87h-1.29c-.13-.25-.21-.55-.25-.9Zm-.1-2.75c-.45,.18-1.12,.34-2.01,.46-.51,.07-.86,.16-1.07,.25-.21,.09-.37,.22-.49,.4-.11,.18-.17,.37-.17,.58,0,.33,.12,.6,.37,.82,.25,.22,.61,.33,1.09,.33s.9-.1,1.26-.31c.37-.21,.64-.49,.81-.85,.13-.28,.2-.69,.2-1.23v-.45Z"/>
      <path d="M499.86,49.03v-7.26h1.11v1.03c.53-.8,1.3-1.2,2.31-1.2,.44,0,.84,.08,1.21,.24,.37,.16,.64,.36,.82,.62,.18,.25,.31,.56,.38,.91,.04,.23,.07,.63,.07,1.2v4.46h-1.23v-4.42c0-.5-.05-.88-.14-1.12-.1-.25-.27-.45-.51-.59-.24-.15-.53-.22-.86-.22-.52,0-.98,.17-1.36,.5-.38,.33-.57,.96-.57,1.89v3.96h-1.23Z"/>
      <path d="M512.36,49.03v-.92c-.46,.72-1.14,1.08-2.03,1.08-.58,0-1.11-.16-1.6-.48s-.86-.76-1.13-1.34c-.27-.57-.4-1.23-.4-1.97s.12-1.38,.36-1.97c.24-.59,.6-1.04,1.09-1.36,.48-.31,1.02-.47,1.62-.47,.44,0,.83,.09,1.17,.28,.34,.18,.62,.42,.83,.72v-3.6h1.22v10.02h-1.14Zm-3.89-3.62c0,.93,.2,1.62,.59,2.08,.39,.46,.85,.69,1.39,.69s.99-.22,1.37-.66c.38-.44,.56-1.11,.56-2.01,0-.99-.19-1.72-.57-2.19s-.85-.7-1.42-.7-1,.22-1.37,.67c-.37,.45-.55,1.15-.55,2.11Z"/>
      <path d="M520.4,46.69l1.27,.16c-.2,.74-.57,1.32-1.11,1.73-.54,.41-1.24,.62-2.08,.62-1.06,0-1.9-.33-2.53-.98-.62-.65-.93-1.57-.93-2.75s.31-2.17,.94-2.84,1.44-1.01,2.45-1.01,1.76,.33,2.38,.99,.92,1.59,.92,2.79c0,.07,0,.18,0,.33h-5.41c.04,.8,.27,1.41,.68,1.83,.41,.42,.91,.64,1.52,.64,.45,0,.84-.12,1.16-.36,.32-.24,.57-.62,.76-1.13Zm-4.04-1.99h4.05c-.05-.61-.21-1.07-.46-1.37-.39-.47-.9-.71-1.52-.71-.57,0-1.04,.19-1.43,.57-.38,.38-.6,.88-.64,1.52Z"/>
      <path d="M523.19,49.03v-10.02h1.23v10.02h-1.23Z"/>
      <path d="M531.07,48.13c-.46,.39-.89,.66-1.32,.82-.42,.16-.87,.24-1.36,.24-.8,0-1.41-.2-1.84-.58-.43-.39-.64-.89-.64-1.49,0-.36,.08-.68,.24-.97,.16-.29,.37-.53,.64-.71,.26-.18,.56-.31,.89-.4,.24-.06,.61-.12,1.09-.18,.99-.12,1.72-.26,2.19-.42,0-.17,0-.28,0-.32,0-.5-.12-.85-.35-1.06-.31-.28-.78-.42-1.4-.42-.58,0-1.01,.1-1.28,.3-.28,.2-.48,.56-.61,1.08l-1.2-.16c.11-.51,.29-.93,.54-1.25,.25-.32,.61-.56,1.09-.73,.47-.17,1.02-.26,1.65-.26s1.12,.07,1.51,.22c.39,.15,.67,.33,.85,.55,.18,.22,.31,.5,.38,.84,.04,.21,.06,.59,.06,1.13v1.64c0,1.14,.03,1.87,.08,2.17,.05,.3,.16,.59,.31,.87h-1.29c-.13-.25-.21-.55-.25-.9Zm-.1-2.75c-.45,.18-1.12,.34-2.01,.46-.51,.07-.86,.16-1.07,.25-.21,.09-.37,.22-.49,.4-.11,.18-.17,.37-.17,.58,0,.33,.12,.6,.37,.82,.25,.22,.61,.33,1.09,.33s.9-.1,1.26-.31c.37-.21,.64-.49,.81-.85,.13-.28,.2-.69,.2-1.23v-.45Z"/>
      <path d="M534.1,49.03v-7.26h1.11v1.1c.28-.51,.54-.85,.78-1.02s.5-.25,.79-.25c.41,0,.84,.13,1.26,.4l-.42,1.14c-.3-.18-.6-.27-.9-.27-.27,0-.51,.08-.72,.24-.21,.16-.37,.39-.46,.67-.14,.44-.21,.92-.21,1.44v3.8h-1.23Z"/>
      <path d="M538.78,40.42v-1.42h1.23v1.42h-1.23Zm0,8.61v-7.26h1.23v7.26h-1.23Z"/>
      <path d="M546.62,48.13c-.46,.39-.89,.66-1.32,.82-.42,.16-.87,.24-1.36,.24-.8,0-1.41-.2-1.84-.58-.43-.39-.64-.89-.64-1.49,0-.36,.08-.68,.24-.97,.16-.29,.37-.53,.64-.71,.26-.18,.56-.31,.89-.4,.24-.06,.61-.12,1.09-.18,.99-.12,1.72-.26,2.19-.42,0-.17,0-.28,0-.32,0-.5-.12-.85-.35-1.06-.31-.28-.78-.42-1.4-.42-.58,0-1.01,.1-1.28,.3-.28,.2-.48,.56-.61,1.08l-1.2-.16c.11-.51,.29-.93,.54-1.25,.25-.32,.61-.56,1.09-.73,.47-.17,1.02-.26,1.65-.26s1.12,.07,1.51,.22c.39,.15,.67,.33,.85,.55,.18,.22,.31,.5,.38,.84,.04,.21,.06,.59,.06,1.13v1.64c0,1.14,.03,1.87,.08,2.17,.05,.3,.16,.59,.31,.87h-1.29c-.13-.25-.21-.55-.25-.9Zm-.1-2.75c-.45,.18-1.12,.34-2.01,.46-.51,.07-.86,.16-1.07,.25-.21,.09-.37,.22-.49,.4-.11,.18-.17,.37-.17,.58,0,.33,.12,.6,.37,.82,.25,.22,.61,.33,1.09,.33s.9-.1,1.26-.31c.37-.21,.64-.49,.81-.85,.13-.28,.2-.69,.2-1.23v-.45Z"/>
    </g>
    <path id="path7756-5" data-name="path7756" class="cls-8" d="M344.5,125.37l115.8-72.9"/>
  </g>
  <g id="sumapazMapText" class="cls-6">
    <path d="M672.68,199.03l1.25-.11c.06,.5,.2,.91,.41,1.23,.22,.32,.55,.58,1.01,.78,.46,.2,.97,.3,1.54,.3,.51,0,.95-.08,1.34-.23,.39-.15,.68-.36,.87-.62,.19-.26,.28-.55,.28-.86s-.09-.59-.27-.82c-.18-.23-.48-.43-.9-.59-.27-.1-.86-.27-1.78-.49-.92-.22-1.57-.43-1.93-.62-.48-.25-.83-.56-1.07-.93-.24-.37-.35-.79-.35-1.25,0-.51,.14-.98,.43-1.42,.29-.44,.71-.77,1.26-1,.55-.23,1.17-.34,1.84-.34,.74,0,1.4,.12,1.97,.36,.57,.24,1,.59,1.31,1.06,.31,.46,.47,.99,.49,1.58l-1.27,.1c-.07-.63-.3-1.11-.69-1.44-.39-.32-.98-.49-1.75-.49s-1.39,.15-1.75,.44c-.37,.29-.55,.65-.55,1.06,0,.36,.13,.66,.39,.89,.26,.23,.92,.47,2,.71,1.08,.24,1.82,.46,2.22,.64,.58,.27,1.01,.61,1.29,1.02,.28,.41,.42,.89,.42,1.43s-.15,1.04-.46,1.51c-.3,.47-.74,.84-1.32,1.1-.57,.26-1.22,.39-1.93,.39-.91,0-1.67-.13-2.28-.4-.61-.26-1.09-.66-1.44-1.19-.35-.53-.53-1.13-.55-1.8Z"/>
    <path d="M687.07,202.25v-1.07c-.56,.82-1.33,1.23-2.3,1.23-.43,0-.83-.08-1.2-.25-.37-.16-.65-.37-.83-.62-.18-.25-.31-.55-.38-.91-.05-.24-.08-.62-.08-1.15v-4.5h1.23v4.03c0,.64,.03,1.08,.08,1.3,.08,.32,.24,.58,.49,.76,.25,.18,.56,.28,.93,.28s.72-.09,1.04-.28c.32-.19,.55-.45,.69-.77,.13-.33,.2-.8,.2-1.42v-3.89h1.23v7.26h-1.1Z"/>
    <path d="M690.1,202.25v-7.26h1.1v1.02c.23-.36,.53-.64,.91-.86,.38-.22,.81-.32,1.29-.32,.54,0,.98,.11,1.32,.33,.34,.22,.59,.54,.73,.94,.57-.85,1.32-1.27,2.24-1.27,.72,0,1.27,.2,1.66,.6,.39,.4,.58,1.01,.58,1.84v4.98h-1.22v-4.57c0-.49-.04-.85-.12-1.06-.08-.22-.22-.39-.43-.52-.21-.13-.46-.2-.74-.2-.51,0-.93,.17-1.27,.51-.34,.34-.51,.88-.51,1.63v4.22h-1.23v-4.72c0-.55-.1-.96-.3-1.23-.2-.27-.53-.41-.98-.41-.35,0-.67,.09-.96,.27s-.51,.45-.64,.8c-.13,.35-.2,.86-.2,1.52v3.77h-1.23Z"/>
    <path d="M706.5,201.35c-.46,.39-.89,.66-1.32,.82-.42,.16-.87,.24-1.36,.24-.8,0-1.41-.2-1.84-.58-.43-.39-.64-.89-.64-1.49,0-.36,.08-.68,.24-.97,.16-.29,.37-.53,.64-.71,.26-.18,.56-.31,.88-.4,.24-.06,.61-.12,1.09-.18,.99-.12,1.73-.26,2.19-.42,0-.17,0-.28,0-.32,0-.5-.12-.85-.35-1.06-.31-.28-.78-.42-1.4-.42-.58,0-1.01,.1-1.28,.3-.28,.2-.48,.56-.61,1.08l-1.2-.16c.11-.51,.29-.93,.54-1.25,.25-.32,.61-.56,1.09-.73,.47-.17,1.02-.26,1.65-.26s1.12,.07,1.51,.22c.39,.15,.67,.33,.85,.55,.18,.22,.31,.5,.38,.84,.04,.21,.06,.59,.06,1.13v1.64c0,1.14,.03,1.87,.08,2.17,.05,.3,.16,.59,.31,.87h-1.29c-.13-.25-.21-.55-.25-.9Zm-.1-2.75c-.45,.18-1.12,.34-2.01,.46-.51,.07-.86,.16-1.07,.25-.21,.09-.37,.22-.49,.4-.11,.18-.17,.37-.17,.58,0,.33,.12,.6,.37,.82,.25,.22,.61,.33,1.09,.33s.9-.1,1.26-.31c.37-.21,.64-.49,.81-.85,.13-.28,.2-.69,.2-1.23v-.45Z"/>
    <path d="M709.55,205.03v-10.04h1.12v.94c.26-.37,.56-.65,.9-.83,.33-.19,.74-.28,1.21-.28,.62,0,1.17,.16,1.64,.48,.47,.32,.83,.77,1.07,1.35,.24,.58,.36,1.22,.36,1.91,0,.74-.13,1.41-.4,2.01-.27,.59-.65,1.05-1.16,1.37-.51,.32-1.04,.47-1.6,.47-.41,0-.78-.09-1.1-.26-.33-.17-.59-.39-.8-.66v3.53h-1.23Zm1.11-6.37c0,.93,.19,1.62,.57,2.07,.38,.45,.84,.67,1.37,.67s1.02-.23,1.41-.69c.39-.46,.58-1.18,.58-2.15s-.19-1.62-.57-2.08c-.38-.46-.83-.69-1.36-.69s-.99,.25-1.39,.74c-.4,.49-.61,1.2-.61,2.14Z"/>
    <path d="M722.07,201.35c-.46,.39-.89,.66-1.32,.82-.42,.16-.87,.24-1.36,.24-.8,0-1.41-.2-1.84-.58-.43-.39-.64-.89-.64-1.49,0-.36,.08-.68,.24-.97,.16-.29,.37-.53,.64-.71,.26-.18,.56-.31,.88-.4,.24-.06,.61-.12,1.09-.18,.99-.12,1.73-.26,2.19-.42,0-.17,0-.28,0-.32,0-.5-.12-.85-.35-1.06-.31-.28-.78-.42-1.4-.42-.58,0-1.01,.1-1.28,.3-.28,.2-.48,.56-.61,1.08l-1.2-.16c.11-.51,.29-.93,.54-1.25,.25-.32,.61-.56,1.09-.73,.47-.17,1.02-.26,1.65-.26s1.12,.07,1.51,.22c.39,.15,.67,.33,.85,.55,.18,.22,.31,.5,.38,.84,.04,.21,.06,.59,.06,1.13v1.64c0,1.14,.03,1.87,.08,2.17,.05,.3,.16,.59,.31,.87h-1.29c-.13-.25-.21-.55-.25-.9Zm-.1-2.75c-.45,.18-1.12,.34-2.01,.46-.51,.07-.86,.16-1.07,.25-.21,.09-.37,.22-.49,.4-.11,.18-.17,.37-.17,.58,0,.33,.12,.6,.37,.82,.25,.22,.61,.33,1.09,.33s.9-.1,1.26-.31c.37-.21,.64-.49,.81-.85,.13-.28,.2-.69,.2-1.23v-.45Z"/>
    <path d="M724.47,202.25v-1l4.62-5.3c-.52,.03-.99,.04-1.39,.04h-2.96v-1h5.93v.81l-3.93,4.61-.76,.84c.55-.04,1.07-.06,1.55-.06h3.36v1.06h-6.43Z"/>
  </g>
  <g id="g7520">
    <g id="g7502">
      <path id="path7504" class="cls-9" d="M667.72,36.01h9.6m62.43,0h-9.6M703.74,0V9.6m0,62.43v-9.6"/>
      <path id="path7506" class="cls-9" d="M680.21,36.01l18.2,5.5,5.33,18.03,5.5-18.06,18.03-5.47-18.03-5.33-5.5-18.2-5.33,18.2-18.2,5.33Z"/>
    </g>
    <g id="g7508">
      <path id="path7510" d="M680.21,36.01h23.53l-5.33,5.5-18.2-5.5Zm23.53,0h23.53l-18.08-5.33-5.45,5.33Zm0,0v23.53l5.45-18.03-5.45-5.5Zm0,0V12.49l-5.33,18.2,5.33,5.33Z"/>
      <path id="path7512" d="M700.9,53.95c-7.73-1.25-13.85-7.35-15.1-15.1l1.34,.41c1.32,6.72,6.63,12.03,13.35,13.35l.41,1.34Zm5.81,0l.41-1.34c6.72-1.32,12.03-6.63,13.35-13.35l1.34-.41c-1.25,7.76-7.37,13.85-15.1,15.1Zm-20.91-20.91c1.25-7.73,7.37-13.83,15.1-15.08l-.41,1.34c-6.72,1.32-12,6.63-13.35,13.33l-1.34,.41Zm36.01,0l-1.34-.41c-1.34-6.7-6.63-11.98-13.33-13.33l-.41-1.34c7.71,1.25,13.83,7.35,15.08,15.08Z"/>
    </g>
  </g>
  <g class="cls-6">
    <path d="M652.54,30.98h2.88l6.48,7.95v-6.11c0-.65-.07-1.06-.22-1.22-.19-.22-.5-.33-.91-.33h-.37v-.29h3.69v.29h-.38c-.45,0-.77,.14-.95,.41-.11,.17-.17,.55-.17,1.14v8.93h-.28l-6.98-8.53v6.52c0,.65,.07,1.06,.21,1.22,.2,.22,.5,.33,.91,.33h.38v.29h-3.69v-.29h.37c.45,0,.77-.14,.96-.41,.11-.17,.17-.55,.17-1.14v-7.37c-.31-.36-.54-.6-.7-.71s-.39-.22-.7-.32c-.15-.05-.38-.07-.69-.07v-.29Z"/>
  </g>
</svg>