<?xml version="1.0" encoding="utf-8"?>
<!-- Generator: Adobe Illustrator 26.5.0, SVG Export Plug-In . SVG Version: 6.00 Build 0)  -->
<svg version="1.1" id="Capa_1" xmlns="http://www.w3.org/2000/svg" xmlns:xlink="http://www.w3.org/1999/xlink" x="0px" y="0px"
	 viewBox="0 0 485.2 47" style="enable-background:new 0 0 485.2 47;" xml:space="preserve">
<style type="text/css">
	.st0{fill:#43CEFF;}
</style>
<g>
	<polygon class="st0" points="484.5,47 0,47 0,0 440.2,0 	"/>
</g>
<g>
	<path d="M24.6,13H27v12.6c0,5-2.5,6.6-5.7,6.6c-0.9,0-2-0.2-2.6-0.4l0.4-2c0.5,0.2,1.2,0.4,2,0.4c2.2,0,3.5-1,3.5-4.7V13z"/>
	<path d="M38.5,31.8l-0.2-1.7h-0.1c-0.8,1.1-2.2,2-4.1,2c-2.7,0-4.1-1.9-4.1-3.9c0-3.3,2.9-5.1,8.1-5v-0.3c0-1.1-0.3-3.1-3.1-3.1
		c-1.3,0-2.6,0.4-3.5,1l-0.6-1.6c1.1-0.7,2.7-1.2,4.5-1.2c4.1,0,5.2,2.8,5.2,5.5v5.1c0,1.2,0.1,2.3,0.2,3.2H38.5z M38.1,24.9
		c-2.7-0.1-5.7,0.4-5.7,3.1c0,1.6,1.1,2.4,2.3,2.4c1.8,0,2.9-1.1,3.3-2.3c0.1-0.3,0.1-0.5,0.1-0.8V24.9z"/>
	<path d="M44.5,22.5c0-1.6,0-3-0.1-4.2h2.2l0.1,2.7h0.1c0.6-1.8,2.1-3,3.8-3c0.3,0,0.5,0,0.7,0.1v2.3c-0.3-0.1-0.5-0.1-0.8-0.1
		c-1.7,0-3,1.3-3.3,3.2c-0.1,0.3-0.1,0.7-0.1,1.1v7.2h-2.4V22.5z"/>
	<path d="M65.1,12v16.4c0,1.2,0,2.6,0.1,3.5H63l-0.1-2.4h-0.1c-0.8,1.5-2.4,2.7-4.6,2.7c-3.3,0-5.8-2.8-5.8-6.9
		c0-4.5,2.8-7.3,6.1-7.3c2.1,0,3.5,1,4.1,2.1h0.1V12H65.1z M62.6,23.8c0-0.3,0-0.7-0.1-1c-0.4-1.6-1.7-2.9-3.6-2.9
		c-2.5,0-4.1,2.2-4.1,5.2c0,2.7,1.3,5,4,5c1.7,0,3.2-1.1,3.6-2.9c0.1-0.3,0.1-0.7,0.1-1.1V23.8z"/>
	<path d="M71.9,14.5c0,0.8-0.6,1.5-1.6,1.5c-0.9,0-1.5-0.7-1.5-1.5c0-0.9,0.6-1.5,1.5-1.5C71.3,12.9,71.9,13.6,71.9,14.5z
		 M69.2,31.8V18.3h2.5v13.6H69.2z"/>
	<path d="M75.7,22c0-1.4,0-2.5-0.1-3.7h2.2l0.1,2.2H78c0.7-1.3,2.2-2.5,4.5-2.5c1.9,0,4.8,1.1,4.8,5.8v8.1h-2.5V24
		c0-2.2-0.8-4-3.1-4c-1.6,0-2.9,1.1-3.3,2.5c-0.1,0.3-0.2,0.7-0.2,1.1v8.1h-2.5V22z"/>
	<path d="M92.6,25.5c0.1,3.3,2.2,4.7,4.6,4.7c1.8,0,2.8-0.3,3.8-0.7l0.4,1.8c-0.9,0.4-2.4,0.8-4.5,0.8c-4.2,0-6.7-2.7-6.7-6.8
		c0-4.1,2.4-7.3,6.4-7.3c4.4,0,5.6,3.9,5.6,6.4c0,0.5-0.1,0.9-0.1,1.1H92.6z M99.8,23.8c0-1.6-0.6-4-3.4-4c-2.5,0-3.6,2.3-3.8,4
		H99.8z"/>
	<path d="M104.9,29.3c0.7,0.5,2,1,3.2,1c1.8,0,2.6-0.9,2.6-2c0-1.2-0.7-1.8-2.5-2.5c-2.4-0.9-3.6-2.2-3.6-3.8c0-2.2,1.8-4,4.7-4
		c1.4,0,2.6,0.4,3.3,0.8l-0.6,1.8c-0.5-0.3-1.5-0.8-2.8-0.8c-1.5,0-2.3,0.8-2.3,1.8c0,1.1,0.8,1.6,2.6,2.3c2.4,0.9,3.6,2.1,3.6,4.1
		c0,2.4-1.8,4.1-5.1,4.1c-1.5,0-2.9-0.4-3.8-0.9L104.9,29.3z"/>
	<path d="M124.8,13v18.9h-2.4V13H124.8z"/>
	<path d="M129.3,22c0-1.4,0-2.5-0.1-3.7h2.2l0.1,2.2h0.1c0.7-1.3,2.2-2.5,4.5-2.5c1.9,0,4.8,1.1,4.8,5.8v8.1h-2.5V24
		c0-2.2-0.8-4-3.1-4c-1.6,0-2.9,1.1-3.3,2.5c-0.1,0.3-0.2,0.7-0.2,1.1v8.1h-2.5V22z"/>
	<path d="M145.1,31.8V20.2h-1.9v-1.9h1.9v-0.6c0-1.9,0.4-3.6,1.6-4.7c0.9-0.9,2.2-1.3,3.3-1.3c0.9,0,1.6,0.2,2.1,0.4l-0.3,1.9
		c-0.4-0.2-0.9-0.3-1.6-0.3c-2.1,0-2.6,1.8-2.6,3.9v0.7h3.3v1.9h-3.3v11.7H145.1z"/>
	<path d="M160.5,31.8l-0.2-1.7h-0.1c-0.8,1.1-2.2,2-4.1,2c-2.7,0-4.1-1.9-4.1-3.9c0-3.3,2.9-5.1,8.1-5v-0.3c0-1.1-0.3-3.1-3.1-3.1
		c-1.3,0-2.6,0.4-3.5,1l-0.6-1.6c1.1-0.7,2.7-1.2,4.5-1.2c4.1,0,5.2,2.8,5.2,5.5v5.1c0,1.2,0.1,2.3,0.2,3.2H160.5z M160.1,24.9
		c-2.7-0.1-5.7,0.4-5.7,3.1c0,1.6,1.1,2.4,2.3,2.4c1.8,0,2.9-1.1,3.3-2.3c0.1-0.3,0.1-0.5,0.1-0.8V24.9z"/>
	<path d="M166.5,22c0-1.4,0-2.5-0.1-3.7h2.2l0.1,2.2h0.1c0.7-1.3,2.2-2.5,4.5-2.5c1.9,0,4.8,1.1,4.8,5.8v8.1h-2.5V24
		c0-2.2-0.8-4-3.1-4c-1.6,0-2.9,1.1-3.3,2.5c-0.1,0.3-0.2,0.7-0.2,1.1v8.1h-2.5V22z"/>
	<path d="M184.9,14.4v3.9h3.5v1.9h-3.5v7.3c0,1.7,0.5,2.6,1.8,2.6c0.6,0,1.1-0.1,1.4-0.2l0.1,1.8c-0.5,0.2-1.2,0.3-2.2,0.3
		c-1.1,0-2.1-0.4-2.7-1c-0.7-0.7-1-1.9-1-3.5v-7.4h-2.1v-1.9h2.1V15L184.9,14.4z"/>
	<path d="M193.9,14.5c0,0.8-0.6,1.5-1.6,1.5c-0.9,0-1.5-0.7-1.5-1.5c0-0.9,0.6-1.5,1.5-1.5C193.3,12.9,193.9,13.6,193.9,14.5z
		 M191.2,31.8V18.3h2.5v13.6H191.2z"/>
	<path d="M197.7,12h2.5v19.9h-2.5V12z"/>
	<path d="M205.7,25.5c0.1,3.3,2.2,4.7,4.6,4.7c1.8,0,2.8-0.3,3.8-0.7l0.4,1.8c-0.9,0.4-2.4,0.8-4.5,0.8c-4.2,0-6.7-2.7-6.7-6.8
		c0-4.1,2.4-7.3,6.4-7.3c4.4,0,5.6,3.9,5.6,6.4c0,0.5-0.1,0.9-0.1,1.1H205.7z M212.9,23.8c0-1.6-0.6-4-3.4-4c-2.5,0-3.6,2.3-3.8,4
		H212.9z"/>
	<path d="M218,29.3c0.7,0.5,2,1,3.2,1c1.8,0,2.6-0.9,2.6-2c0-1.2-0.7-1.8-2.5-2.5c-2.4-0.9-3.6-2.2-3.6-3.8c0-2.2,1.8-4,4.7-4
		c1.4,0,2.6,0.4,3.3,0.8l-0.6,1.8c-0.5-0.3-1.5-0.8-2.8-0.8c-1.5,0-2.3,0.8-2.3,1.8c0,1.1,0.8,1.6,2.6,2.3c2.4,0.9,3.6,2.1,3.6,4.1
		c0,2.4-1.8,4.1-5.1,4.1c-1.5,0-2.9-0.4-3.8-0.9L218,29.3z"/>
	<path d="M247.1,12v16.4c0,1.2,0,2.6,0.1,3.5H245l-0.1-2.4h-0.1c-0.8,1.5-2.4,2.7-4.6,2.7c-3.3,0-5.8-2.8-5.8-6.9
		c0-4.5,2.8-7.3,6.1-7.3c2.1,0,3.5,1,4.1,2.1h0.1V12H247.1z M244.6,23.8c0-0.3,0-0.7-0.1-1c-0.4-1.6-1.7-2.9-3.6-2.9
		c-2.5,0-4.1,2.2-4.1,5.2c0,2.7,1.3,5,4,5c1.7,0,3.2-1.1,3.6-2.9c0.1-0.3,0.1-0.7,0.1-1.1V23.8z"/>
	<path d="M252.6,25.5c0.1,3.3,2.2,4.7,4.6,4.7c1.8,0,2.8-0.3,3.8-0.7l0.4,1.8c-0.9,0.4-2.4,0.8-4.5,0.8c-4.2,0-6.7-2.7-6.7-6.8
		c0-4.1,2.4-7.3,6.4-7.3c4.4,0,5.6,3.9,5.6,6.4c0,0.5-0.1,0.9-0.1,1.1H252.6z M259.8,23.8c0-1.6-0.6-4-3.4-4c-2.5,0-3.6,2.3-3.8,4
		H259.8z"/>
	<path d="M271.2,13.2c1.1-0.2,2.7-0.4,4.5-0.4c2.4,0,4,0.4,5.2,1.4c1,0.7,1.6,1.8,1.6,3.3c0,1.8-1.2,3.4-3.2,4.1v0.1
		c1.8,0.4,3.9,1.9,3.9,4.7c0,1.6-0.6,2.9-1.6,3.8c-1.3,1.2-3.4,1.8-6.5,1.8c-1.7,0-3-0.1-3.8-0.2V13.2z M273.7,21h2.2
		c2.6,0,4.1-1.3,4.1-3.2c0-2.2-1.7-3.1-4.1-3.1c-1.1,0-1.8,0.1-2.2,0.2V21z M273.7,30c0.5,0.1,1.2,0.1,2,0.1c2.5,0,4.8-0.9,4.8-3.7
		c0-2.6-2.2-3.6-4.9-3.6h-2V30z"/>
	<path d="M298.7,25c0,5-3.5,7.2-6.7,7.2c-3.7,0-6.5-2.7-6.5-7c0-4.5,3-7.2,6.7-7.2C296.1,18,298.7,20.8,298.7,25z M287.9,25.1
		c0,3,1.7,5.2,4.1,5.2c2.4,0,4.1-2.2,4.1-5.3c0-2.3-1.1-5.2-4.1-5.2C289.2,19.8,287.9,22.5,287.9,25.1z"/>
	<path d="M313.5,18.3c-0.1,1-0.1,2.1-0.1,3.7v7.9c0,3.1-0.6,5-1.9,6.2c-1.3,1.2-3.2,1.6-4.9,1.6c-1.6,0-3.4-0.4-4.5-1.1l0.6-1.9
		c0.9,0.6,2.3,1.1,4,1.1c2.5,0,4.4-1.3,4.4-4.7v-1.5h-0.1c-0.8,1.3-2.2,2.3-4.3,2.3c-3.4,0-5.8-2.9-5.8-6.6c0-4.6,3-7.2,6.1-7.2
		c2.4,0,3.6,1.2,4.2,2.4h0.1l0.1-2H313.5z M310.9,23.6c0-0.4,0-0.8-0.1-1.1c-0.4-1.4-1.7-2.6-3.4-2.6c-2.4,0-4,2-4,5.1
		c0,2.7,1.3,4.9,4,4.9c1.5,0,2.9-1,3.4-2.5c0.1-0.4,0.2-0.9,0.2-1.3V23.6z"/>
	<path d="M329.7,25c0,5-3.5,7.2-6.7,7.2c-3.7,0-6.5-2.7-6.5-7c0-4.5,3-7.2,6.7-7.2C327.1,18,329.7,20.8,329.7,25z M319,25.1
		c0,3,1.7,5.2,4.1,5.2c2.4,0,4.1-2.2,4.1-5.3c0-2.3-1.1-5.2-4.1-5.2C320.2,19.8,319,22.5,319,25.1z"/>
	<path d="M335.8,14.4v3.9h3.5v1.9h-3.5v7.3c0,1.7,0.5,2.6,1.8,2.6c0.6,0,1.1-0.1,1.4-0.2l0.1,1.8c-0.5,0.2-1.2,0.3-2.2,0.3
		c-1.1,0-2.1-0.4-2.7-1c-0.7-0.7-1-1.9-1-3.5v-7.4h-2.1v-1.9h2.1V15L335.8,14.4z"/>
	<path d="M349.6,31.8l-0.2-1.7h-0.1c-0.8,1.1-2.2,2-4.1,2c-2.7,0-4.1-1.9-4.1-3.9c0-3.3,2.9-5.1,8.1-5v-0.3c0-1.1-0.3-3.1-3.1-3.1
		c-1.3,0-2.6,0.4-3.5,1l-0.6-1.6c1.1-0.7,2.7-1.2,4.5-1.2c4.1,0,5.2,2.8,5.2,5.5v5.1c0,1.2,0.1,2.3,0.2,3.2H349.6z M349.2,24.9
		c-2.7-0.1-5.7,0.4-5.7,3.1c0,1.6,1.1,2.4,2.3,2.4c1.8,0,2.9-1.1,3.3-2.3c0.1-0.3,0.1-0.5,0.1-0.8V24.9z M350.5,12.4l-3.4,4h-1.8
		l2.5-4H350.5z"/>
</g>
</svg>
